<svg width="268" height="107" viewBox="0 0 268 107" fill="none" xmlns="http://www.w3.org/2000/svg">
<g filter="url(#filter0_d_4_2)">
<path d="M62.2336 92.6496V63.5587H68.3842V76.3854H68.7677L79.2365 63.5587H86.6086L75.8132 76.5842L86.7365 92.6496H79.3785L71.4097 80.6893L68.3842 84.3825V92.6496H62.2336ZM114.904 78.1041C114.904 81.2765 114.303 83.9753 113.1 86.2007C111.907 88.4261 110.278 90.1259 108.214 91.3001C106.159 92.4649 103.848 93.0473 101.282 93.0473C98.6967 93.0473 96.3766 92.4602 94.3217 91.2859C92.2668 90.1117 90.6427 88.4119 89.4495 86.1865C88.2563 83.9611 87.6597 81.267 87.6597 78.1041C87.6597 74.9318 88.2563 72.2329 89.4495 70.0075C90.6427 67.7821 92.2668 66.0871 94.3217 64.9223C96.3766 63.7481 98.6967 63.1609 101.282 63.1609C103.848 63.1609 106.159 63.7481 108.214 64.9223C110.278 66.0871 111.907 67.7821 113.1 70.0075C114.303 72.2329 114.904 74.9318 114.904 78.1041ZM108.668 78.1041C108.668 76.0492 108.361 74.3162 107.745 72.9052C107.139 71.4943 106.282 70.4242 105.174 69.695C104.066 68.9659 102.769 68.6013 101.282 68.6013C99.7952 68.6013 98.4978 68.9659 97.3899 69.695C96.2819 70.4242 95.4202 71.4943 94.8046 72.9052C94.1986 74.3162 93.8955 76.0492 93.8955 78.1041C93.8955 80.159 94.1986 81.892 94.8046 83.303C95.4202 84.714 96.2819 85.784 97.3899 86.5132C98.4978 87.2424 99.7952 87.607 101.282 87.607C102.769 87.607 104.066 87.2424 105.174 86.5132C106.282 85.784 107.139 84.714 107.745 83.303C108.361 81.892 108.668 80.159 108.668 78.1041ZM119.46 92.6496V63.5587H125.611V87.5785H138.082V92.6496H119.46ZM152.468 92.6496H142.155V63.5587H152.553C155.479 63.5587 157.998 64.141 160.11 65.3058C162.222 66.4611 163.846 68.1231 164.982 70.2916C166.128 72.4602 166.701 75.0549 166.701 78.0757C166.701 81.106 166.128 83.7102 164.982 85.8882C163.846 88.0662 162.212 89.7376 160.082 90.9024C157.96 92.0672 155.423 92.6496 152.468 92.6496ZM148.306 87.3797H152.212C154.03 87.3797 155.56 87.0577 156.8 86.4138C158.05 85.7604 158.988 84.7518 159.613 83.3882C160.247 82.0151 160.565 80.2443 160.565 78.0757C160.565 75.9261 160.247 74.1695 159.613 72.8058C158.988 71.4422 158.055 70.4384 156.815 69.7945C155.574 69.1505 154.045 68.8285 152.227 68.8285H148.306V87.3797ZM187.038 71.9251C186.925 70.7793 186.437 69.8891 185.575 69.2547C184.713 68.6202 183.544 68.303 182.067 68.303C181.063 68.303 180.215 68.445 179.524 68.7291C178.833 69.0037 178.303 69.3873 177.933 69.8797C177.573 70.3721 177.393 70.9308 177.393 71.5558C177.374 72.0766 177.483 72.5312 177.72 72.9195C177.966 73.3077 178.303 73.6439 178.729 73.928C179.155 74.2026 179.647 74.4441 180.206 74.6524C180.765 74.8513 181.361 75.0217 181.996 75.1638L184.609 75.7888C185.878 76.0729 187.043 76.4516 188.104 76.9251C189.164 77.3986 190.083 77.981 190.859 78.6723C191.636 79.3636 192.237 80.178 192.663 81.1155C193.099 82.053 193.321 83.1278 193.331 84.3399C193.321 86.1202 192.867 87.6638 191.967 88.9706C191.077 90.2679 189.789 91.2765 188.104 91.9962C186.428 92.7064 184.406 93.0615 182.038 93.0615C179.69 93.0615 177.644 92.7016 175.902 91.982C174.169 91.2623 172.815 90.1969 171.839 88.7859C170.874 87.3655 170.367 85.6088 170.32 83.516H176.271C176.338 84.4914 176.617 85.3058 177.109 85.9592C177.611 86.6032 178.279 87.0909 179.112 87.4223C179.955 87.7443 180.907 87.9052 181.967 87.9052C183.009 87.9052 183.913 87.7537 184.68 87.4507C185.457 87.1477 186.058 86.7263 186.484 86.1865C186.91 85.6467 187.124 85.0265 187.124 84.3257C187.124 83.6723 186.929 83.1231 186.541 82.678C186.162 82.2329 185.604 81.8541 184.865 81.5416C184.136 81.2291 183.241 80.945 182.18 80.6893L179.013 79.8939C176.56 79.2973 174.624 78.3645 173.203 77.0956C171.783 75.8266 171.077 74.1174 171.087 71.9677C171.077 70.2064 171.546 68.6676 172.493 67.3513C173.449 66.035 174.761 65.0075 176.428 64.2689C178.094 63.5302 179.988 63.1609 182.109 63.1609C184.268 63.1609 186.153 63.5302 187.763 64.2689C189.382 65.0075 190.642 66.035 191.541 67.3513C192.441 68.6676 192.905 70.1922 192.933 71.9251H187.038ZM209.116 63.5587H215.195V83.8427C215.195 85.7177 214.774 87.3465 213.931 88.7291C213.098 90.1117 211.938 91.177 210.451 91.9251C208.964 92.6732 207.236 93.0473 205.266 93.0473C203.514 93.0473 201.923 92.7395 200.494 92.124C199.073 91.499 197.946 90.552 197.113 89.2831C196.28 88.0047 195.868 86.3996 195.877 84.4677H201.999C202.018 85.2348 202.174 85.8929 202.468 86.4422C202.771 86.982 203.183 87.3986 203.704 87.6922C204.234 87.9763 204.859 88.1183 205.579 88.1183C206.336 88.1183 206.976 87.9573 207.496 87.6354C208.027 87.3039 208.429 86.821 208.704 86.1865C208.978 85.552 209.116 84.7708 209.116 83.8427V63.5587ZM247.013 78.1041C247.013 81.2765 246.412 83.9753 245.209 86.2007C244.016 88.4261 242.387 90.1259 240.323 91.3001C238.268 92.4649 235.958 93.0473 233.391 93.0473C230.806 93.0473 228.486 92.4602 226.431 91.2859C224.376 90.1117 222.752 88.4119 221.559 86.1865C220.366 83.9611 219.769 81.267 219.769 78.1041C219.769 74.9318 220.366 72.2329 221.559 70.0075C222.752 67.7821 224.376 66.0871 226.431 64.9223C228.486 63.7481 230.806 63.1609 233.391 63.1609C235.958 63.1609 238.268 63.7481 240.323 64.9223C242.387 66.0871 244.016 67.7821 245.209 70.0075C246.412 72.2329 247.013 74.9318 247.013 78.1041ZM240.778 78.1041C240.778 76.0492 240.47 74.3162 239.854 72.9052C239.248 71.4943 238.391 70.4242 237.283 69.695C236.175 68.9659 234.878 68.6013 233.391 68.6013C231.905 68.6013 230.607 68.9659 229.499 69.695C228.391 70.4242 227.53 71.4943 226.914 72.9052C226.308 74.3162 226.005 76.0492 226.005 78.1041C226.005 80.159 226.308 81.892 226.914 83.303C227.53 84.714 228.391 85.784 229.499 86.5132C230.607 87.2424 231.905 87.607 233.391 87.607C234.878 87.607 236.175 87.2424 237.283 86.5132C238.391 85.784 239.248 84.714 239.854 83.303C240.47 81.892 240.778 80.159 240.778 78.1041Z" fill="white"/>
</g>
<g filter="url(#filter1_d_4_2)">
<path d="M263.061 60.0607C263.646 59.4749 263.646 58.5251 263.061 57.9393L253.515 48.3934C252.929 47.8076 251.979 47.8076 251.393 48.3934C250.808 48.9792 250.808 49.9289 251.393 50.5147L259.879 59L251.393 67.4853C250.808 68.0711 250.808 69.0208 251.393 69.6066C251.979 70.1924 252.929 70.1924 253.515 69.6066L263.061 60.0607ZM62 60.5H262V57.5H62V60.5Z" fill="white"/>
</g>
<g filter="url(#filter2_d_4_2)">
<path d="M48.5795 42.4545C48.1534 38.8561 46.4252 36.0625 43.3949 34.0739C40.3646 32.0852 36.6477 31.0909 32.2443 31.0909C29.0246 31.0909 26.2074 31.6117 23.7926 32.6534C21.4015 33.6951 19.5313 35.1274 18.1818 36.9503C16.8561 38.7732 16.1932 40.8447 16.1932 43.1648C16.1932 45.1061 16.6548 46.7751 17.5781 48.1719C18.5251 49.545 19.7325 50.6932 21.2003 51.6165C22.6681 52.5161 24.2069 53.2618 25.8168 53.8537C27.4266 54.4219 28.9062 54.8835 30.2557 55.2386L37.642 57.2273C39.536 57.7244 41.643 58.411 43.9631 59.2869C46.3068 60.1629 48.544 61.3584 50.6747 62.8736C52.8291 64.3651 54.6046 66.2827 56.0014 68.6264C57.3982 70.9702 58.0966 73.8466 58.0966 77.2557C58.0966 81.1856 57.0668 84.7367 55.0071 87.9091C52.9711 91.0814 49.9882 93.6027 46.0582 95.473C42.152 97.3433 37.4053 98.2784 31.8182 98.2784C26.6098 98.2784 22.0999 97.438 18.2884 95.7571C14.5005 94.0762 11.5175 91.7325 9.33949 88.7259C7.18513 85.7192 5.96591 82.2273 5.68182 78.25H14.7727C15.0095 80.9962 15.9328 83.2689 17.5426 85.0682C19.1761 86.8437 21.2358 88.1695 23.7216 89.0455C26.2311 89.8977 28.9299 90.3239 31.8182 90.3239C35.1799 90.3239 38.1984 89.7794 40.8736 88.6903C43.5488 87.5777 45.6676 86.0388 47.2301 84.0739C48.7926 82.0852 49.5739 79.7652 49.5739 77.1136C49.5739 74.6989 48.8991 72.7339 47.5497 71.2188C46.2003 69.7036 44.4247 68.4725 42.223 67.5256C40.0213 66.5786 37.642 65.75 35.0852 65.0398L26.1364 62.483C20.4545 60.8494 15.9564 58.5175 12.642 55.4872C9.32765 52.4569 7.67045 48.4915 7.67045 43.5909C7.67045 39.5189 8.77131 35.9678 10.973 32.9375C13.1984 29.8835 16.1813 27.5161 19.9219 25.8352C23.6861 24.1307 27.8883 23.2784 32.5284 23.2784C37.2159 23.2784 41.3826 24.1188 45.0284 25.7997C48.6742 27.4569 51.5625 29.7296 53.6932 32.6179C55.8475 35.5062 56.9839 38.785 57.1023 42.4545H48.5795Z" fill="white"/>
</g>
<g filter="url(#filter3_d_4_2)">
<path d="M96.2051 39.5359V54.0813H93.5701V39.5359H96.2051ZM111.012 39.5359V54.0813H108.668L101.814 44.1737H101.693V54.0813H99.0584V39.5359H101.416L108.263 49.4506H108.391V39.5359H111.012ZM125.836 39.5359V54.0813H123.492L116.638 44.1737H116.518V54.0813H113.883V39.5359H116.241L123.087 49.4506H123.215V39.5359H125.836ZM141.704 46.8086C141.704 48.3758 141.41 49.7182 140.823 50.8356C140.241 51.9483 139.445 52.8006 138.437 53.3924C137.433 53.9843 136.294 54.2802 135.021 54.2802C133.747 54.2802 132.606 53.9843 131.597 53.3924C130.594 52.7958 129.798 51.9412 129.211 50.8285C128.629 49.7111 128.338 48.3711 128.338 46.8086C128.338 45.2414 128.629 43.9014 129.211 42.7887C129.798 41.6713 130.594 40.8167 131.597 40.2248C132.606 39.6329 133.747 39.337 135.021 39.337C136.294 39.337 137.433 39.6329 138.437 40.2248C139.445 40.8167 140.241 41.6713 140.823 42.7887C141.41 43.9014 141.704 45.2414 141.704 46.8086ZM139.055 46.8086C139.055 45.7054 138.882 44.775 138.536 44.0174C138.195 43.2551 137.722 42.6798 137.116 42.2916C136.51 41.8986 135.811 41.7021 135.021 41.7021C134.23 41.7021 133.532 41.8986 132.926 42.2916C132.32 42.6798 131.844 43.2551 131.498 44.0174C131.157 44.775 130.987 45.7054 130.987 46.8086C130.987 47.9118 131.157 48.8446 131.498 49.6069C131.844 50.3645 132.32 50.9398 132.926 51.3327C133.532 51.721 134.23 51.9151 135.021 51.9151C135.811 51.9151 136.51 51.721 137.116 51.3327C137.722 50.9398 138.195 50.3645 138.536 49.6069C138.882 48.8446 139.055 47.9118 139.055 46.8086ZM145.36 39.5359L149.145 50.9847H149.295L153.073 39.5359H155.971L150.843 54.0813H147.59L142.469 39.5359H145.36ZM158.055 54.0813H155.243L160.363 39.5359H163.616L168.744 54.0813H165.932L162.047 42.5188H161.933L158.055 54.0813ZM158.148 48.3782H165.818V50.4947H158.148V48.3782ZM168.263 41.7447V39.5359H179.868V41.7447H175.372V54.0813H172.759V41.7447H168.263ZM184.74 39.5359V54.0813H182.105V39.5359H184.74ZM200.591 46.8086C200.591 48.3758 200.297 49.7182 199.71 50.8356C199.128 51.9483 198.332 52.8006 197.324 53.3924C196.32 53.9843 195.181 54.2802 193.907 54.2802C192.634 54.2802 191.493 53.9843 190.484 53.3924C189.48 52.7958 188.685 51.9412 188.098 50.8285C187.515 49.7111 187.224 48.3711 187.224 46.8086C187.224 45.2414 187.515 43.9014 188.098 42.7887C188.685 41.6713 189.48 40.8167 190.484 40.2248C191.493 39.6329 192.634 39.337 193.907 39.337C195.181 39.337 196.32 39.6329 197.324 40.2248C198.332 40.8167 199.128 41.6713 199.71 42.7887C200.297 43.9014 200.591 45.2414 200.591 46.8086ZM197.942 46.8086C197.942 45.7054 197.769 44.775 197.423 44.0174C197.082 43.2551 196.609 42.6798 196.003 42.2916C195.397 41.8986 194.698 41.7021 193.907 41.7021C193.117 41.7021 192.418 41.8986 191.812 42.2916C191.206 42.6798 190.73 43.2551 190.385 44.0174C190.044 44.775 189.873 45.7054 189.873 46.8086C189.873 47.9118 190.044 48.8446 190.385 49.6069C190.73 50.3645 191.206 50.9398 191.812 51.3327C192.418 51.721 193.117 51.9151 193.907 51.9151C194.698 51.9151 195.397 51.721 196.003 51.3327C196.609 50.9398 197.082 50.3645 197.423 49.6069C197.769 48.8446 197.942 47.9118 197.942 46.8086ZM215.035 39.5359V54.0813H212.691L205.838 44.1737H205.717V54.0813H203.082V39.5359H205.44L212.286 49.4506H212.414V39.5359H215.035Z" fill="white"/>
</g>
<defs>
<filter id="filter0_d_4_2" x="58.2336" y="63.1609" width="192.78" height="37.9006" filterUnits="userSpaceOnUse" color-interpolation-filters="sRGB">
<feFlood flood-opacity="0" result="BackgroundImageFix"/>
<feColorMatrix in="SourceAlpha" type="matrix" values="0 0 0 0 0 0 0 0 0 0 0 0 0 0 0 0 0 0 127 0" result="hardAlpha"/>
<feOffset dy="4"/>
<feGaussianBlur stdDeviation="2"/>
<feComposite in2="hardAlpha" operator="out"/>
<feColorMatrix type="matrix" values="0 0 0 0 0 0 0 0 0 0 0 0 0 0 0 0 0 0 0.25 0"/>
<feBlend mode="normal" in2="BackgroundImageFix" result="effect1_dropShadow_4_2"/>
<feBlend mode="normal" in="SourceGraphic" in2="effect1_dropShadow_4_2" result="shape"/>
</filter>
<filter id="filter1_d_4_2" x="58" y="47.9541" width="209.5" height="30.0919" filterUnits="userSpaceOnUse" color-interpolation-filters="sRGB">
<feFlood flood-opacity="0" result="BackgroundImageFix"/>
<feColorMatrix in="SourceAlpha" type="matrix" values="0 0 0 0 0 0 0 0 0 0 0 0 0 0 0 0 0 0 127 0" result="hardAlpha"/>
<feOffset dy="4"/>
<feGaussianBlur stdDeviation="2"/>
<feComposite in2="hardAlpha" operator="out"/>
<feColorMatrix type="matrix" values="0 0 0 0 0 0 0 0 0 0 0 0 0 0 0 0 0 0 0.25 0"/>
<feBlend mode="normal" in2="BackgroundImageFix" result="effect1_dropShadow_4_2"/>
<feBlend mode="normal" in="SourceGraphic" in2="effect1_dropShadow_4_2" result="shape"/>
</filter>
<filter id="filter2_d_4_2" x="1.68182" y="23.2784" width="60.4148" height="83" filterUnits="userSpaceOnUse" color-interpolation-filters="sRGB">
<feFlood flood-opacity="0" result="BackgroundImageFix"/>
<feColorMatrix in="SourceAlpha" type="matrix" values="0 0 0 0 0 0 0 0 0 0 0 0 0 0 0 0 0 0 127 0" result="hardAlpha"/>
<feOffset dy="4"/>
<feGaussianBlur stdDeviation="2"/>
<feComposite in2="hardAlpha" operator="out"/>
<feColorMatrix type="matrix" values="0 0 0 0 0 0 0 0 0 0 0 0 0 0 0 0 0 0 0.25 0"/>
<feBlend mode="normal" in2="BackgroundImageFix" result="effect1_dropShadow_4_2"/>
<feBlend mode="normal" in="SourceGraphic" in2="effect1_dropShadow_4_2" result="shape"/>
</filter>
<filter id="filter3_d_4_2" x="89.5701" y="39.337" width="129.465" height="22.9432" filterUnits="userSpaceOnUse" color-interpolation-filters="sRGB">
<feFlood flood-opacity="0" result="BackgroundImageFix"/>
<feColorMatrix in="SourceAlpha" type="matrix" values="0 0 0 0 0 0 0 0 0 0 0 0 0 0 0 0 0 0 127 0" result="hardAlpha"/>
<feOffset dy="4"/>
<feGaussianBlur stdDeviation="2"/>
<feComposite in2="hardAlpha" operator="out"/>
<feColorMatrix type="matrix" values="0 0 0 0 0 0 0 0 0 0 0 0 0 0 0 0 0 0 0.25 0"/>
<feBlend mode="normal" in2="BackgroundImageFix" result="effect1_dropShadow_4_2"/>
<feBlend mode="normal" in="SourceGraphic" in2="effect1_dropShadow_4_2" result="shape"/>
</filter>
</defs>
</svg>
