<svg width="319" height="108" viewBox="0 0 319 108" fill="none" xmlns="http://www.w3.org/2000/svg">
<path d="M60.5284 90V60.9091H66.679V73.7358H67.0625L77.5312 60.9091H84.9034L74.108 73.9347L85.0312 90H77.6733L69.7045 78.0398L66.679 81.733V90H60.5284ZM113.199 75.4545C113.199 78.6269 112.598 81.3258 111.395 83.5511C110.202 85.7765 108.573 87.4763 106.509 88.6506C104.454 89.8153 102.143 90.3977 99.5767 90.3977C96.9915 90.3977 94.6714 89.8106 92.6165 88.6364C90.5616 87.4621 88.9375 85.7623 87.7443 83.5369C86.5511 81.3116 85.9545 78.6174 85.9545 75.4545C85.9545 72.2822 86.5511 69.5833 87.7443 67.358C88.9375 65.1326 90.5616 63.4375 92.6165 62.2727C94.6714 61.0985 96.9915 60.5114 99.5767 60.5114C102.143 60.5114 104.454 61.0985 106.509 62.2727C108.573 63.4375 110.202 65.1326 111.395 67.358C112.598 69.5833 113.199 72.2822 113.199 75.4545ZM106.963 75.4545C106.963 73.3996 106.655 71.6667 106.04 70.2557C105.434 68.8447 104.577 67.7746 103.469 67.0455C102.361 66.3163 101.063 65.9517 99.5767 65.9517C98.09 65.9517 96.7926 66.3163 95.6847 67.0455C94.5767 67.7746 93.715 68.8447 93.0994 70.2557C92.4934 71.6667 92.1903 73.3996 92.1903 75.4545C92.1903 77.5095 92.4934 79.2424 93.0994 80.6534C93.715 82.0644 94.5767 83.1345 95.6847 83.8636C96.7926 84.5928 98.09 84.9574 99.5767 84.9574C101.063 84.9574 102.361 84.5928 103.469 83.8636C104.577 83.1345 105.434 82.0644 106.04 80.6534C106.655 79.2424 106.963 77.5095 106.963 75.4545ZM117.755 90V60.9091H123.906V84.929H136.377V90H117.755ZM150.763 90H140.45V60.9091H150.848C153.774 60.9091 156.293 61.4915 158.405 62.6562C160.517 63.8116 162.141 65.4735 163.277 67.642C164.423 69.8106 164.996 72.4053 164.996 75.4261C164.996 78.4564 164.423 81.0606 163.277 83.2386C162.141 85.4167 160.507 87.0881 158.376 88.2528C156.255 89.4176 153.717 90 150.763 90ZM146.601 84.7301H150.507C152.325 84.7301 153.855 84.4081 155.095 83.7642C156.345 83.1108 157.283 82.1023 157.908 80.7386C158.542 79.3655 158.859 77.5947 158.859 75.4261C158.859 73.2765 158.542 71.5199 157.908 70.1562C157.283 68.7926 156.35 67.7888 155.109 67.1449C153.869 66.5009 152.339 66.179 150.521 66.179H146.601V84.7301ZM185.333 69.2756C185.219 68.1297 184.732 67.2396 183.87 66.6051C183.008 65.9706 181.839 65.6534 180.362 65.6534C179.358 65.6534 178.51 65.7955 177.819 66.0795C177.128 66.3542 176.597 66.7377 176.228 67.2301C175.868 67.7225 175.688 68.2812 175.688 68.9062C175.669 69.4271 175.778 69.8816 176.015 70.2699C176.261 70.6581 176.597 70.9943 177.023 71.2784C177.45 71.553 177.942 71.7945 178.501 72.0028C179.059 72.2017 179.656 72.3722 180.29 72.5142L182.904 73.1392C184.173 73.4233 185.338 73.8021 186.398 74.2756C187.459 74.7491 188.378 75.3314 189.154 76.0227C189.931 76.714 190.532 77.5284 190.958 78.4659C191.394 79.4034 191.616 80.4782 191.626 81.6903C191.616 83.4706 191.162 85.0142 190.262 86.321C189.372 87.6184 188.084 88.6269 186.398 89.3466C184.722 90.0568 182.701 90.4119 180.333 90.4119C177.985 90.4119 175.939 90.0521 174.197 89.3324C172.464 88.6127 171.11 87.5473 170.134 86.1364C169.168 84.7159 168.662 82.9593 168.614 80.8665H174.566C174.632 81.8419 174.912 82.6562 175.404 83.3097C175.906 83.9536 176.574 84.4413 177.407 84.7727C178.25 85.0947 179.201 85.2557 180.262 85.2557C181.304 85.2557 182.208 85.1042 182.975 84.8011C183.752 84.4981 184.353 84.0767 184.779 83.5369C185.205 82.9972 185.418 82.3769 185.418 81.6761C185.418 81.0227 185.224 80.4735 184.836 80.0284C184.457 79.5833 183.898 79.2045 183.16 78.892C182.431 78.5795 181.536 78.2955 180.475 78.0398L177.308 77.2443C174.855 76.6477 172.918 75.715 171.498 74.446C170.077 73.1771 169.372 71.4678 169.381 69.3182C169.372 67.5568 169.841 66.018 170.788 64.7017C171.744 63.3854 173.056 62.358 174.722 61.6193C176.389 60.8807 178.283 60.5114 180.404 60.5114C182.563 60.5114 184.448 60.8807 186.058 61.6193C187.677 62.358 188.936 63.3854 189.836 64.7017C190.736 66.018 191.2 67.5426 191.228 69.2756H185.333ZM207.411 60.9091H213.49V81.1932C213.49 83.0682 213.069 84.697 212.226 86.0795C211.393 87.4621 210.232 88.5275 208.746 89.2756C207.259 90.0237 205.531 90.3977 203.561 90.3977C201.809 90.3977 200.218 90.09 198.788 89.4744C197.368 88.8494 196.241 87.9025 195.408 86.6335C194.574 85.3551 194.162 83.75 194.172 81.8182H200.294C200.313 82.5852 200.469 83.2434 200.763 83.7926C201.066 84.3324 201.478 84.7491 201.999 85.0426C202.529 85.3267 203.154 85.4688 203.874 85.4688C204.631 85.4688 205.27 85.3078 205.791 84.9858C206.321 84.6544 206.724 84.1714 206.999 83.5369C207.273 82.9025 207.411 82.1212 207.411 81.1932V60.9091ZM245.308 75.4545C245.308 78.6269 244.707 81.3258 243.504 83.5511C242.311 85.7765 240.682 87.4763 238.618 88.6506C236.563 89.8153 234.252 90.3977 231.686 90.3977C229.101 90.3977 226.781 89.8106 224.726 88.6364C222.671 87.4621 221.047 85.7623 219.854 83.5369C218.661 81.3116 218.064 78.6174 218.064 75.4545C218.064 72.2822 218.661 69.5833 219.854 67.358C221.047 65.1326 222.671 63.4375 224.726 62.2727C226.781 61.0985 229.101 60.5114 231.686 60.5114C234.252 60.5114 236.563 61.0985 238.618 62.2727C240.682 63.4375 242.311 65.1326 243.504 67.358C244.707 69.5833 245.308 72.2822 245.308 75.4545ZM239.072 75.4545C239.072 73.3996 238.765 71.6667 238.149 70.2557C237.543 68.8447 236.686 67.7746 235.578 67.0455C234.47 66.3163 233.173 65.9517 231.686 65.9517C230.199 65.9517 228.902 66.3163 227.794 67.0455C226.686 67.7746 225.824 68.8447 225.209 70.2557C224.603 71.6667 224.3 73.3996 224.3 75.4545C224.3 77.5095 224.603 79.2424 225.209 80.6534C225.824 82.0644 226.686 83.1345 227.794 83.8636C228.902 84.5928 230.199 84.9574 231.686 84.9574C233.173 84.9574 234.47 84.5928 235.578 83.8636C236.686 83.1345 237.543 82.0644 238.149 80.6534C238.765 79.2424 239.072 77.5095 239.072 75.4545Z" fill="black"/>
<g filter="url(#filter0_d_2_2)">
<path d="M48.5795 42.4545C48.1534 38.8561 46.4252 36.0625 43.3949 34.0739C40.3646 32.0852 36.6477 31.0909 32.2443 31.0909C29.0246 31.0909 26.2074 31.6117 23.7926 32.6534C21.4015 33.6951 19.5313 35.1274 18.1818 36.9503C16.8561 38.7732 16.1932 40.8447 16.1932 43.1648C16.1932 45.1061 16.6548 46.7751 17.5781 48.1719C18.5251 49.545 19.7325 50.6932 21.2003 51.6165C22.6681 52.5161 24.2069 53.2618 25.8168 53.8537C27.4266 54.4219 28.9062 54.8835 30.2557 55.2386L37.642 57.2273C39.536 57.7244 41.643 58.411 43.9631 59.2869C46.3068 60.1629 48.544 61.3584 50.6747 62.8736C52.8291 64.3651 54.6046 66.2827 56.0014 68.6264C57.3982 70.9702 58.0966 73.8466 58.0966 77.2557C58.0966 81.1856 57.0668 84.7367 55.0071 87.9091C52.9711 91.0814 49.9882 93.6027 46.0582 95.473C42.152 97.3433 37.4053 98.2784 31.8182 98.2784C26.6098 98.2784 22.0999 97.438 18.2884 95.7571C14.5005 94.0762 11.5175 91.7325 9.33949 88.7259C7.18513 85.7192 5.96591 82.2273 5.68182 78.25H14.7727C15.0095 80.9962 15.9328 83.2689 17.5426 85.0682C19.1761 86.8437 21.2358 88.1695 23.7216 89.0455C26.2311 89.8977 28.9299 90.3239 31.8182 90.3239C35.1799 90.3239 38.1984 89.7794 40.8736 88.6903C43.5488 87.5777 45.6676 86.0388 47.2301 84.0739C48.7926 82.0852 49.5739 79.7652 49.5739 77.1136C49.5739 74.6989 48.8991 72.7339 47.5497 71.2188C46.2003 69.7036 44.4247 68.4725 42.223 67.5256C40.0213 66.5786 37.642 65.75 35.0852 65.0398L26.1364 62.483C20.4545 60.8494 15.9564 58.5175 12.642 55.4872C9.32765 52.4569 7.67045 48.4915 7.67045 43.5909C7.67045 39.5189 8.77131 35.9678 10.973 32.9375C13.1984 29.8835 16.1813 27.5161 19.9219 25.8352C23.6861 24.1307 27.8883 23.2784 32.5284 23.2784C37.2159 23.2784 41.3826 24.1188 45.0284 25.7997C48.6742 27.4569 51.5625 29.7296 53.6932 32.6179C55.8475 35.5062 56.9839 38.785 57.1023 42.4545H48.5795Z" fill="black"/>
</g>
<path d="M109.438 44.1307C109.347 43.3239 108.972 42.6989 108.312 42.2557C107.653 41.8068 106.824 41.5824 105.824 41.5824C105.108 41.5824 104.489 41.696 103.966 41.9233C103.443 42.1449 103.037 42.4517 102.747 42.8438C102.463 43.2301 102.321 43.6705 102.321 44.1648C102.321 44.5795 102.418 44.9375 102.611 45.2386C102.81 45.5398 103.068 45.7926 103.386 45.9972C103.71 46.196 104.057 46.3636 104.426 46.5C104.795 46.6307 105.151 46.7386 105.491 46.8239L107.196 47.267C107.753 47.4034 108.324 47.5881 108.909 47.821C109.494 48.054 110.037 48.3608 110.537 48.7415C111.037 49.1222 111.44 49.5938 111.747 50.1562C112.06 50.7188 112.216 51.392 112.216 52.1761C112.216 53.1648 111.96 54.0426 111.449 54.8097C110.943 55.5767 110.207 56.1818 109.241 56.625C108.281 57.0682 107.119 57.2898 105.756 57.2898C104.449 57.2898 103.318 57.0824 102.364 56.6676C101.409 56.2528 100.662 55.6648 100.122 54.9034C99.5824 54.1364 99.2841 53.2273 99.2273 52.1761H101.869C101.92 52.8068 102.125 53.3324 102.483 53.7528C102.847 54.1676 103.31 54.4773 103.872 54.6818C104.44 54.8807 105.062 54.9801 105.739 54.9801C106.483 54.9801 107.145 54.8636 107.724 54.6307C108.31 54.392 108.77 54.0625 109.105 53.642C109.44 53.2159 109.608 52.7187 109.608 52.1506C109.608 51.6335 109.46 51.2102 109.165 50.8807C108.875 50.5511 108.48 50.2784 107.98 50.0625C107.486 49.8466 106.926 49.6562 106.301 49.4915L104.239 48.929C102.841 48.5483 101.733 47.9886 100.915 47.25C100.102 46.5114 99.696 45.5341 99.696 44.3182C99.696 43.3125 99.9688 42.4347 100.514 41.6847C101.06 40.9347 101.798 40.3523 102.73 39.9375C103.662 39.517 104.713 39.3068 105.884 39.3068C107.065 39.3068 108.108 39.5142 109.011 39.929C109.92 40.3438 110.636 40.9148 111.159 41.642C111.682 42.3636 111.955 43.1932 111.977 44.1307H109.438ZM114.502 41.8125V39.5455H128.011V41.8125H122.565V57H119.94V41.8125H114.502ZM142.22 39.5455H144.862V51.0256C144.862 52.2472 144.575 53.3295 144.001 54.2727C143.428 55.2102 142.621 55.9489 141.581 56.4886C140.541 57.0227 139.322 57.2898 137.925 57.2898C136.533 57.2898 135.317 57.0227 134.277 56.4886C133.237 55.9489 132.43 55.2102 131.857 54.2727C131.283 53.3295 130.996 52.2472 130.996 51.0256V39.5455H133.629V50.8125C133.629 51.6023 133.803 52.304 134.149 52.9176C134.501 53.5312 134.999 54.0142 135.641 54.3665C136.283 54.7131 137.044 54.8864 137.925 54.8864C138.811 54.8864 139.575 54.7131 140.217 54.3665C140.865 54.0142 141.359 53.5312 141.7 52.9176C142.047 52.304 142.22 51.6023 142.22 50.8125V39.5455ZM154.342 57H148.691V39.5455H154.521C156.231 39.5455 157.7 39.8949 158.927 40.5938C160.154 41.2869 161.094 42.2841 161.748 43.5852C162.407 44.8807 162.737 46.4347 162.737 48.2472C162.737 50.0653 162.404 51.6278 161.739 52.9347C161.08 54.2415 160.126 55.2472 158.876 55.9517C157.626 56.6506 156.114 57 154.342 57ZM151.325 54.6989H154.197C155.526 54.6989 156.631 54.4489 157.512 53.9489C158.393 53.4432 159.052 52.7131 159.489 51.7585C159.927 50.7983 160.146 49.6278 160.146 48.2472C160.146 46.8778 159.927 45.7159 159.489 44.7614C159.058 43.8068 158.413 43.0824 157.555 42.5881C156.697 42.0937 155.631 41.8466 154.359 41.8466H151.325V54.6989ZM168.645 39.5455V57H166.011V39.5455H168.645ZM187.642 48.2727C187.642 50.1364 187.301 51.7386 186.619 53.0795C185.938 54.4148 185.003 55.4432 183.815 56.1648C182.634 56.8807 181.29 57.2386 179.784 57.2386C178.273 57.2386 176.923 56.8807 175.736 56.1648C174.554 55.4432 173.622 54.4119 172.94 53.071C172.259 51.7301 171.918 50.1307 171.918 48.2727C171.918 46.4091 172.259 44.8097 172.94 43.4744C173.622 42.1335 174.554 41.1051 175.736 40.3892C176.923 39.6676 178.273 39.3068 179.784 39.3068C181.29 39.3068 182.634 39.6676 183.815 40.3892C185.003 41.1051 185.938 42.1335 186.619 43.4744C187.301 44.8097 187.642 46.4091 187.642 48.2727ZM185.034 48.2727C185.034 46.8523 184.804 45.6562 184.344 44.6847C183.889 43.7074 183.264 42.9688 182.469 42.4688C181.679 41.9631 180.784 41.7102 179.784 41.7102C178.778 41.7102 177.881 41.9631 177.091 42.4688C176.301 42.9688 175.676 43.7074 175.216 44.6847C174.761 45.6562 174.534 46.8523 174.534 48.2727C174.534 49.6932 174.761 50.892 175.216 51.8693C175.676 52.8409 176.301 53.5795 177.091 54.0852C177.881 54.5852 178.778 54.8352 179.784 54.8352C180.784 54.8352 181.679 54.5852 182.469 54.0852C183.264 53.5795 183.889 52.8409 184.344 51.8693C184.804 50.892 185.034 49.6932 185.034 48.2727Z" fill="black"/>
<defs>
<filter id="filter0_d_2_2" x="1.68182" y="23.2784" width="60.4148" height="83" filterUnits="userSpaceOnUse" color-interpolation-filters="sRGB">
<feFlood flood-opacity="0" result="BackgroundImageFix"/>
<feColorMatrix in="SourceAlpha" type="matrix" values="0 0 0 0 0 0 0 0 0 0 0 0 0 0 0 0 0 0 127 0" result="hardAlpha"/>
<feOffset dy="4"/>
<feGaussianBlur stdDeviation="2"/>
<feComposite in2="hardAlpha" operator="out"/>
<feColorMatrix type="matrix" values="0 0 0 0 0 0 0 0 0 0 0 0 0 0 0 0 0 0 0.25 0"/>
<feBlend mode="normal" in2="BackgroundImageFix" result="effect1_dropShadow_2_2"/>
<feBlend mode="normal" in="SourceGraphic" in2="effect1_dropShadow_2_2" result="shape"/>
</filter>
</defs>
</svg>
