<svg width="608" height="307" viewBox="0 0 608 307" fill="none" xmlns="http://www.w3.org/2000/svg">
<path fill-rule="evenodd" clip-rule="evenodd" d="M598.517 252.164H469.342C464.852 252.164 461.212 248.524 461.212 244.033V45.7444C461.212 41.2539 464.852 37.6137 469.342 37.6137H598.517C603.007 37.6137 606.647 41.2539 606.647 45.7444V244.033C606.647 248.524 603.007 252.164 598.517 252.164Z" fill="#FDFDFD" stroke="#7E89A3" stroke-width="2"/>
<path fill-rule="evenodd" clip-rule="evenodd" d="M598.517 252.164H469.342C464.852 252.164 461.212 248.524 461.212 244.033V45.7444C461.212 41.2539 464.852 37.6137 469.342 37.6137H598.517C603.007 37.6137 606.647 41.2539 606.647 45.7444V244.033C606.647 248.524 603.007 252.164 598.517 252.164Z" fill="#FDFDFD" stroke="#7E89A3" stroke-width="2"/>
<path d="M595.819 59.2213H472.66V230.444H595.819V59.2213Z" fill="white" stroke="#7E89A3"/>
<path d="M534.254 246.099C537.252 246.099 539.682 243.668 539.682 240.669C539.682 237.67 537.252 235.239 534.254 235.239C531.256 235.239 528.826 237.67 528.826 240.669C528.826 243.668 531.256 246.099 534.254 246.099Z" stroke="#7E89A3"/>
<path d="M533.556 51.0838C534.674 51.0838 535.58 50.1775 535.58 49.0596C535.58 47.9417 534.674 47.0354 533.556 47.0354C532.439 47.0354 531.533 47.9417 531.533 49.0596C531.533 50.1775 532.439 51.0838 533.556 51.0838Z" stroke="#7E89A3"/>
<rect x="473" y="59" width="123" height="171" fill="#555555"/>
<g clip-path="url(#clip0_102_6)">
<g filter="url(#filter0_d_102_6)">
<path d="M506.989 157.769V147.166H509.261V151.841H509.403L513.27 147.166H515.993L512.006 151.914L516.041 157.769H513.323L510.379 153.41L509.261 154.756V157.769H506.989ZM526.446 152.468C526.446 153.624 526.224 154.608 525.779 155.419C525.339 156.23 524.737 156.85 523.975 157.278C523.215 157.702 522.362 157.914 521.414 157.914C520.459 157.914 519.602 157.7 518.843 157.272C518.084 156.844 517.484 156.225 517.043 155.414C516.602 154.603 516.382 153.621 516.382 152.468C516.382 151.312 516.602 150.328 517.043 149.517C517.484 148.706 518.084 148.088 518.843 147.663C519.602 147.235 520.459 147.021 521.414 147.021C522.362 147.021 523.215 147.235 523.975 147.663C524.737 148.088 525.339 148.706 525.779 149.517C526.224 150.328 526.446 151.312 526.446 152.468ZM524.142 152.468C524.142 151.719 524.029 151.087 523.801 150.573C523.577 150.059 523.261 149.669 522.852 149.403C522.442 149.137 521.963 149.004 521.414 149.004C520.865 149.004 520.385 149.137 519.976 149.403C519.567 149.669 519.249 150.059 519.021 150.573C518.797 151.087 518.685 151.719 518.685 152.468C518.685 153.217 518.797 153.848 519.021 154.363C519.249 154.877 519.567 155.267 519.976 155.533C520.385 155.799 520.865 155.932 521.414 155.932C521.963 155.932 522.442 155.799 522.852 155.533C523.261 155.267 523.577 154.877 523.801 154.363C524.029 153.848 524.142 153.217 524.142 152.468ZM528.129 157.769V147.166H530.401V155.921H535.008V157.769H528.129ZM540.322 157.769H536.512V147.166H540.354C541.434 147.166 542.365 147.379 543.145 147.803C543.925 148.224 544.525 148.83 544.945 149.62C545.368 150.411 545.58 151.356 545.58 152.458C545.58 153.562 545.368 154.511 544.945 155.305C544.525 156.099 543.922 156.708 543.135 157.133C542.351 157.557 541.414 157.769 540.322 157.769ZM538.785 155.849H540.228C540.899 155.849 541.464 155.731 541.922 155.497C542.384 155.258 542.731 154.891 542.962 154.394C543.196 153.893 543.313 153.248 543.313 152.458C543.313 151.674 543.196 151.034 542.962 150.537C542.731 150.04 542.386 149.674 541.928 149.439C541.47 149.204 540.905 149.087 540.233 149.087H538.785V155.849ZM553.092 150.216C553.051 149.798 552.87 149.474 552.552 149.242C552.234 149.011 551.802 148.895 551.256 148.895C550.885 148.895 550.572 148.947 550.317 149.051C550.061 149.151 549.866 149.291 549.729 149.47C549.596 149.65 549.53 149.853 549.53 150.081C549.522 150.271 549.563 150.437 549.65 150.578C549.741 150.72 549.866 150.842 550.023 150.946C550.18 151.046 550.362 151.134 550.569 151.21C550.775 151.282 550.995 151.344 551.23 151.396L552.195 151.624C552.664 151.728 553.094 151.866 553.486 152.038C553.878 152.211 554.217 152.423 554.504 152.675C554.791 152.927 555.013 153.224 555.17 153.565C555.331 153.907 555.413 154.299 555.417 154.741C555.413 155.39 555.246 155.952 554.913 156.429C554.584 156.901 554.109 157.269 553.486 157.531C552.867 157.79 552.12 157.92 551.245 157.92C550.378 157.92 549.622 157.788 548.979 157.526C548.339 157.264 547.838 156.876 547.478 156.361C547.121 155.844 546.934 155.203 546.917 154.44H549.115C549.14 154.796 549.243 155.093 549.425 155.331C549.61 155.566 549.857 155.743 550.165 155.864C550.476 155.982 550.828 156.04 551.219 156.04C551.604 156.04 551.938 155.985 552.221 155.875C552.508 155.764 552.73 155.611 552.888 155.414C553.045 155.217 553.124 154.991 553.124 154.736C553.124 154.497 553.052 154.297 552.909 154.135C552.769 153.973 552.563 153.835 552.29 153.721C552.02 153.607 551.69 153.503 551.298 153.41L550.128 153.12C549.222 152.903 548.507 152.563 547.982 152.1C547.457 151.638 547.196 151.015 547.2 150.231C547.196 149.589 547.37 149.028 547.719 148.549C548.073 148.069 548.557 147.694 549.173 147.425C549.788 147.156 550.488 147.021 551.272 147.021C552.069 147.021 552.765 147.156 553.36 147.425C553.958 147.694 554.424 148.069 554.756 148.549C555.088 149.028 555.26 149.584 555.27 150.216H553.092ZM561.248 147.166H563.494V154.559C563.494 155.243 563.338 155.837 563.027 156.341C562.719 156.844 562.291 157.233 561.741 157.505C561.192 157.778 560.554 157.914 559.826 157.914C559.179 157.914 558.591 157.802 558.063 157.578C557.538 157.35 557.122 157.005 556.814 156.542C556.506 156.076 556.354 155.491 556.358 154.787H558.619C558.626 155.067 558.684 155.307 558.792 155.507C558.904 155.704 559.056 155.856 559.249 155.963C559.445 156.066 559.676 156.118 559.942 156.118C560.221 156.118 560.458 156.059 560.65 155.942C560.846 155.821 560.994 155.645 561.096 155.414C561.197 155.183 561.248 154.898 561.248 154.559V147.166ZM575.247 152.468C575.247 153.624 575.025 154.608 574.581 155.419C574.14 156.23 573.538 156.85 572.776 157.278C572.017 157.702 571.164 157.914 570.215 157.914C569.26 157.914 568.403 157.7 567.644 157.272C566.885 156.844 566.285 156.225 565.845 155.414C565.404 154.603 565.183 153.621 565.183 152.468C565.183 151.312 565.404 150.328 565.845 149.517C566.285 148.706 566.885 148.088 567.644 147.663C568.403 147.235 569.26 147.021 570.215 147.021C571.164 147.021 572.017 147.235 572.776 147.663C573.538 148.088 574.14 148.706 574.581 149.517C575.025 150.328 575.247 151.312 575.247 152.468ZM572.944 152.468C572.944 151.719 572.83 151.087 572.603 150.573C572.379 150.059 572.062 149.669 571.653 149.403C571.244 149.137 570.765 149.004 570.215 149.004C569.666 149.004 569.187 149.137 568.778 149.403C568.368 149.669 568.05 150.059 567.823 150.573C567.599 151.087 567.487 151.719 567.487 152.468C567.487 153.217 567.599 153.848 567.823 154.363C568.05 154.877 568.368 155.267 568.778 155.533C569.187 155.799 569.666 155.932 570.215 155.932C570.765 155.932 571.244 155.799 571.653 155.533C572.062 155.267 572.379 154.877 572.603 154.363C572.83 153.848 572.944 153.217 572.944 152.468Z" fill="white"/>
</g>
<g filter="url(#filter1_d_102_6)">
<path d="M581.176 145.891C581.392 145.678 581.392 145.332 581.176 145.118L577.649 141.639C577.433 141.425 577.082 141.425 576.865 141.639C576.649 141.852 576.649 142.198 576.865 142.412L580 145.505L576.865 148.597C576.649 148.811 576.649 149.157 576.865 149.371C577.082 149.584 577.433 149.584 577.649 149.371L581.176 145.891ZM506.903 146.051H580.784V144.958H506.903V146.051Z" fill="white"/>
</g>
<g filter="url(#filter2_d_102_6)">
<path d="M501.945 139.474C501.788 138.163 501.15 137.144 500.03 136.419C498.911 135.695 497.538 135.332 495.911 135.332C494.722 135.332 493.681 135.522 492.789 135.902C491.906 136.281 491.215 136.803 490.716 137.468C490.227 138.132 489.982 138.887 489.982 139.733C489.982 140.441 490.152 141.049 490.493 141.558C490.843 142.058 491.289 142.477 491.831 142.813C492.374 143.141 492.942 143.413 493.537 143.629C494.131 143.836 494.678 144.004 495.177 144.134L497.905 144.859C498.605 145.04 499.383 145.29 500.24 145.609C501.106 145.929 501.932 146.364 502.719 146.917C503.515 147.46 504.171 148.159 504.687 149.013C505.203 149.868 505.461 150.916 505.461 152.159C505.461 153.591 505.081 154.885 504.32 156.042C503.568 157.198 502.466 158.117 501.014 158.799C499.571 159.48 497.818 159.821 495.754 159.821C493.83 159.821 492.164 159.515 490.756 158.902C489.357 158.289 488.255 157.435 487.45 156.339C486.654 155.243 486.204 153.971 486.099 152.521H489.457C489.545 153.522 489.886 154.35 490.48 155.006C491.084 155.653 491.845 156.137 492.763 156.456C493.69 156.766 494.687 156.922 495.754 156.922C496.996 156.922 498.111 156.723 499.099 156.326C500.087 155.921 500.87 155.36 501.447 154.644C502.024 153.919 502.313 153.073 502.313 152.107C502.313 151.227 502.063 150.51 501.565 149.958C501.067 149.406 500.411 148.957 499.597 148.612C498.784 148.267 497.905 147.965 496.961 147.706L493.655 146.774C491.556 146.179 489.894 145.329 488.67 144.224C487.446 143.12 486.833 141.674 486.833 139.888C486.833 138.404 487.24 137.11 488.053 136.005C488.876 134.892 489.977 134.029 491.359 133.417C492.75 132.795 494.302 132.485 496.016 132.485C497.748 132.485 499.287 132.791 500.634 133.404C501.98 134.008 503.047 134.836 503.834 135.889C504.63 136.942 505.05 138.137 505.094 139.474H501.945Z" fill="white"/>
</g>
<g filter="url(#filter3_d_102_6)">
<path d="M519.538 138.41V143.712H518.565V138.41H519.538ZM525.008 138.41V143.712H524.142L521.61 140.101H521.566V143.712H520.592V138.41H521.463L523.993 142.024H524.04V138.41H525.008ZM530.484 138.41V143.712H529.618L527.086 140.101H527.042V143.712H526.069V138.41H526.94L529.469 142.024H529.516V138.41H530.484ZM536.346 141.061C536.346 141.632 536.237 142.122 536.02 142.529C535.805 142.934 535.511 143.245 535.139 143.461C534.768 143.677 534.347 143.784 533.877 143.784C533.407 143.784 532.985 143.677 532.612 143.461C532.242 143.243 531.948 142.932 531.731 142.526C531.516 142.119 531.408 141.631 531.408 141.061C531.408 140.49 531.516 140.001 531.731 139.596C531.948 139.189 532.242 138.877 532.612 138.661C532.985 138.446 533.407 138.338 533.877 138.338C534.347 138.338 534.768 138.446 535.139 138.661C535.511 138.877 535.805 139.189 536.02 139.596C536.237 140.001 536.346 140.49 536.346 141.061ZM535.367 141.061C535.367 140.659 535.303 140.32 535.176 140.044C535.05 139.766 534.875 139.556 534.651 139.415C534.427 139.271 534.169 139.2 533.877 139.2C533.585 139.2 533.327 139.271 533.103 139.415C532.879 139.556 532.704 139.766 532.576 140.044C532.45 140.32 532.387 140.659 532.387 141.061C532.387 141.463 532.45 141.803 532.576 142.081C532.704 142.357 532.879 142.567 533.103 142.71C533.327 142.852 533.585 142.922 533.877 142.922C534.169 142.922 534.427 142.852 534.651 142.71C534.875 142.567 535.05 142.357 535.176 142.081C535.303 141.803 535.367 141.463 535.367 141.061ZM537.696 138.41L539.095 142.583H539.15L540.546 138.41H541.616L539.722 143.712H538.52L536.628 138.41H537.696ZM542.386 143.712H541.347L543.239 138.41H544.44L546.335 143.712H545.296L543.861 139.498H543.819L542.386 143.712ZM542.42 141.633H545.254V142.405H542.42V141.633ZM546.157 139.215V138.41H550.444V139.215H548.783V143.712H547.818V139.215H546.157ZM552.244 138.41V143.712H551.27V138.41H552.244ZM558.099 141.061C558.099 141.632 557.99 142.122 557.773 142.529C557.558 142.934 557.264 143.245 556.892 143.461C556.521 143.677 556.1 143.784 555.63 143.784C555.16 143.784 554.738 143.677 554.365 143.461C553.994 143.243 553.701 142.932 553.484 142.526C553.269 142.119 553.161 141.631 553.161 141.061C553.161 140.49 553.269 140.001 553.484 139.596C553.701 139.189 553.994 138.877 554.365 138.661C554.738 138.446 555.16 138.338 555.63 138.338C556.1 138.338 556.521 138.446 556.892 138.661C557.264 138.877 557.558 139.189 557.773 139.596C557.99 140.001 558.099 140.49 558.099 141.061ZM557.12 141.061C557.12 140.659 557.056 140.32 556.929 140.044C556.803 139.766 556.628 139.556 556.404 139.415C556.18 139.271 555.922 139.2 555.63 139.2C555.338 139.2 555.08 139.271 554.856 139.415C554.632 139.556 554.456 139.766 554.329 140.044C554.203 140.32 554.14 140.659 554.14 141.061C554.14 141.463 554.203 141.803 554.329 142.081C554.456 142.357 554.632 142.567 554.856 142.71C555.08 142.852 555.338 142.922 555.63 142.922C555.922 142.922 556.18 142.852 556.404 142.71C556.628 142.567 556.803 142.357 556.929 142.081C557.056 141.803 557.12 141.463 557.12 141.061ZM563.435 138.41V143.712H562.569L560.037 140.101H559.992V143.712H559.019V138.41H559.89L562.419 142.024H562.466V138.41H563.435Z" fill="white"/>
</g>
</g>
<path fill-rule="evenodd" clip-rule="evenodd" d="M402.96 1H67.3166C58.184 1 50.3991 8.49688 50.3991 17.7827V238.643H419.877V17.7827C419.877 8.4962 412.121 1 402.96 1Z" fill="#FEFEFE" stroke="#8492A5" stroke-width="2"/>
<path d="M235.815 16.5708C237.31 16.5708 238.522 15.3584 238.522 13.8628C238.522 12.3673 237.31 11.1549 235.815 11.1549C234.32 11.1549 233.108 12.3673 233.108 13.8628C233.108 15.3584 234.32 16.5708 235.815 16.5708Z" stroke="#8492A5" stroke-width="2"/>
<path fill-rule="evenodd" clip-rule="evenodd" d="M434.638 259.617H35.7066C14.9678 259.617 1 252.498 1 249.471V240.268C1 239.358 1.90339 238.624 3.02672 238.624H467.317C468.441 238.624 469.346 239.358 469.346 240.268V249.833C469.341 252.226 458.525 259.617 434.638 259.617Z" fill="#FDFDFD" stroke="#8492A5" stroke-width="2"/>
<path d="M1.33835 248.44H468.087" stroke="#8492A5" stroke-linecap="square"/>
<path d="M404.363 27.4026H65.2865V225.09H404.363V27.4026Z" fill="white" stroke="#8492A5"/>
<path fill-rule="evenodd" clip-rule="evenodd" d="M285.891 239.301V241.391C285.891 242.881 282.958 243.331 280.739 243.331H189.674C187.339 243.331 184.386 242.881 184.386 241.391V239.301" fill="white"/>
<path d="M285.891 239.301V241.391C285.891 242.881 282.958 243.331 280.739 243.331H189.674C187.339 243.331 184.386 242.881 184.386 241.391V239.301" stroke="#8492A5"/>
<rect x="65" y="27" width="339" height="198" fill="#555555"/>
<path d="M187.25 128H182.761V113.455H187.449C188.86 113.455 190.067 113.746 191.071 114.328C192.075 114.906 192.844 115.737 193.379 116.821C193.914 117.901 194.182 119.193 194.182 120.699C194.182 122.214 193.912 123.518 193.372 124.612C192.832 125.701 192.046 126.539 191.014 127.126C189.982 127.709 188.727 128 187.25 128ZM184.523 126.438H187.136C188.339 126.438 189.336 126.205 190.126 125.741C190.917 125.277 191.507 124.617 191.895 123.76C192.283 122.903 192.477 121.883 192.477 120.699C192.477 119.525 192.286 118.514 191.902 117.666C191.518 116.814 190.946 116.161 190.183 115.706C189.421 115.247 188.472 115.017 187.335 115.017H184.523V126.438ZM198.898 113.455V128H197.136V113.455H198.898ZM213.963 113.455V128H212.259L204.333 116.58H204.191V128H202.429V113.455H204.134L212.088 124.903H212.23V113.455H213.963ZM222.317 115.017V113.455H233.227V115.017H228.653V128H226.891V115.017H222.317ZM245.49 113.455H247.252V123.085C247.252 124.08 247.017 124.967 246.549 125.749C246.085 126.525 245.429 127.138 244.581 127.588C243.734 128.033 242.739 128.256 241.598 128.256C240.457 128.256 239.463 128.033 238.615 127.588C237.768 127.138 237.11 126.525 236.641 125.749C236.177 124.967 235.945 124.08 235.945 123.085V113.455H237.706V122.943C237.706 123.653 237.863 124.286 238.175 124.839C238.488 125.389 238.933 125.822 239.51 126.139C240.093 126.452 240.789 126.608 241.598 126.608C242.408 126.608 243.104 126.452 243.686 126.139C244.269 125.822 244.714 125.389 245.022 124.839C245.334 124.286 245.49 123.653 245.49 122.943V113.455ZM250.769 128V113.455H255.684C256.82 113.455 257.753 113.649 258.482 114.037C259.211 114.42 259.751 114.948 260.102 115.621C260.452 116.293 260.627 117.058 260.627 117.915C260.627 118.772 260.452 119.532 260.102 120.195C259.751 120.857 259.214 121.378 258.489 121.757C257.765 122.131 256.839 122.318 255.712 122.318H251.735V120.727H255.656C256.432 120.727 257.057 120.614 257.531 120.386C258.009 120.159 258.354 119.837 258.567 119.42C258.785 118.999 258.894 118.497 258.894 117.915C258.894 117.332 258.785 116.823 258.567 116.388C258.35 115.952 258.002 115.616 257.523 115.379C257.045 115.138 256.413 115.017 255.627 115.017H252.531V128H250.769ZM257.616 121.466L261.195 128H259.15L255.627 121.466H257.616ZM265.522 123.909V123.824C265.532 122.92 265.627 122.2 265.806 121.665C265.986 121.13 266.242 120.696 266.574 120.365C266.905 120.034 267.303 119.728 267.767 119.449C268.046 119.278 268.297 119.077 268.52 118.845C268.742 118.608 268.917 118.336 269.045 118.028C269.178 117.721 269.244 117.38 269.244 117.006C269.244 116.542 269.135 116.139 268.917 115.798C268.699 115.457 268.408 115.195 268.044 115.01C267.679 114.825 267.274 114.733 266.829 114.733C266.441 114.733 266.067 114.813 265.707 114.974C265.347 115.135 265.047 115.389 264.805 115.734C264.564 116.08 264.424 116.532 264.386 117.091H262.596C262.634 116.286 262.842 115.597 263.221 115.024C263.605 114.451 264.109 114.013 264.734 113.71C265.364 113.407 266.062 113.256 266.829 113.256C267.663 113.256 268.387 113.421 269.002 113.753C269.623 114.084 270.101 114.539 270.437 115.116C270.778 115.694 270.949 116.352 270.949 117.091C270.949 117.612 270.868 118.083 270.707 118.504C270.551 118.926 270.324 119.302 270.025 119.634C269.732 119.965 269.377 120.259 268.96 120.514C268.543 120.775 268.209 121.049 267.958 121.338C267.708 121.622 267.525 121.961 267.412 122.354C267.298 122.747 267.236 123.237 267.227 123.824V123.909H265.522ZM266.431 128.114C266.081 128.114 265.78 127.988 265.529 127.737C265.279 127.486 265.153 127.186 265.153 126.835C265.153 126.485 265.279 126.184 265.529 125.933C265.78 125.682 266.081 125.557 266.431 125.557C266.782 125.557 267.083 125.682 267.333 125.933C267.584 126.184 267.71 126.485 267.71 126.835C267.71 127.067 267.651 127.28 267.532 127.474C267.419 127.669 267.265 127.825 267.071 127.943C266.881 128.057 266.668 128.114 266.431 128.114Z" fill="white"/>
<path fill-rule="evenodd" clip-rule="evenodd" d="M478.074 294.79C478.074 300.77 473.207 305.616 467.204 305.616H400.972C394.969 305.616 390.103 300.77 390.103 294.79V131.032C390.103 125.052 394.969 120.205 400.972 120.205H467.204C473.207 120.205 478.074 125.052 478.074 131.032V294.79Z" fill="#FDFDFD" stroke="#7E89A3" stroke-width="2"/>
<path d="M471.936 144.522H396.193V279.3H471.936V144.522Z" fill="white" stroke="#7E89A3"/>
<path fill-rule="evenodd" clip-rule="evenodd" d="M442.208 137.58C442.208 138.01 441.911 138.357 441.545 138.357H427.942C427.576 138.357 427.279 138.009 427.279 137.58V135.834C427.279 135.404 427.576 135.057 427.942 135.057H441.545C441.911 135.057 442.208 135.404 442.208 135.834V137.58Z" stroke="#7E89A3"/>
<path d="M434.765 130.305C435.886 130.305 436.795 129.396 436.795 128.274C436.795 127.153 435.886 126.243 434.765 126.243C433.644 126.243 432.735 127.153 432.735 128.274C432.735 129.396 433.644 130.305 434.765 130.305Z" stroke="#7E89A3"/>
<path d="M434.115 298.877C437.867 298.877 440.909 295.846 440.909 292.107C440.909 288.368 437.867 285.336 434.115 285.336C430.363 285.336 427.321 288.368 427.321 292.107C427.321 295.846 430.363 298.877 434.115 298.877Z" stroke="#7E89A3"/>
<path d="M472 145H396V279H472V145Z" fill="#555555"/>
<path d="M403.233 217V206.818H404.466V215.906H409.199V217H403.233ZM414.051 217.159C413.362 217.159 412.757 216.995 412.237 216.667C411.719 216.339 411.315 215.88 411.023 215.29C410.735 214.7 410.591 214.01 410.591 213.222C410.591 212.426 410.735 211.732 411.023 211.138C411.315 210.545 411.719 210.085 412.237 209.756C412.757 209.428 413.362 209.264 414.051 209.264C414.741 209.264 415.344 209.428 415.861 209.756C416.381 210.085 416.786 210.545 417.074 211.138C417.366 211.732 417.511 212.426 417.511 213.222C417.511 214.01 417.366 214.7 417.074 215.29C416.786 215.88 416.381 216.339 415.861 216.667C415.344 216.995 414.741 217.159 414.051 217.159ZM414.051 216.105C414.575 216.105 415.006 215.971 415.344 215.702C415.682 215.434 415.932 215.081 416.094 214.643C416.257 214.206 416.338 213.732 416.338 213.222C416.338 212.711 416.257 212.236 416.094 211.795C415.932 211.354 415.682 210.998 415.344 210.726C415.006 210.454 414.575 210.318 414.051 210.318C413.527 210.318 413.097 210.454 412.759 210.726C412.42 210.998 412.17 211.354 412.008 211.795C411.845 212.236 411.764 212.711 411.764 213.222C411.764 213.732 411.845 214.206 412.008 214.643C412.17 215.081 412.42 215.434 412.759 215.702C413.097 215.971 413.527 216.105 414.051 216.105ZM421.55 217.179C421.066 217.179 420.626 217.088 420.232 216.906C419.838 216.72 419.524 216.453 419.292 216.105C419.06 215.754 418.944 215.33 418.944 214.832C418.944 214.395 419.031 214.04 419.203 213.768C419.375 213.493 419.606 213.278 419.894 213.122C420.182 212.966 420.501 212.85 420.849 212.774C421.2 212.695 421.553 212.632 421.907 212.585C422.372 212.526 422.748 212.481 423.036 212.451C423.328 212.418 423.54 212.363 423.672 212.287C423.808 212.211 423.876 212.078 423.876 211.889V211.849C423.876 211.359 423.742 210.978 423.474 210.706C423.208 210.434 422.806 210.298 422.265 210.298C421.705 210.298 421.266 210.421 420.948 210.666C420.63 210.911 420.406 211.173 420.277 211.452L419.163 211.054C419.362 210.59 419.627 210.229 419.959 209.97C420.293 209.708 420.658 209.526 421.052 209.423C421.45 209.317 421.841 209.264 422.226 209.264C422.471 209.264 422.753 209.294 423.071 209.354C423.392 209.41 423.702 209.528 424.001 209.707C424.302 209.886 424.552 210.156 424.751 210.517C424.95 210.878 425.05 211.362 425.05 211.969V217H423.876V215.966H423.817C423.737 216.132 423.604 216.309 423.419 216.498C423.233 216.687 422.986 216.848 422.678 216.98C422.37 217.113 421.994 217.179 421.55 217.179ZM421.729 216.125C422.193 216.125 422.584 216.034 422.902 215.852C423.223 215.669 423.465 215.434 423.628 215.146C423.793 214.857 423.876 214.554 423.876 214.236V213.162C423.827 213.222 423.717 213.276 423.548 213.326C423.382 213.372 423.19 213.414 422.971 213.45C422.756 213.483 422.546 213.513 422.34 213.54C422.138 213.563 421.974 213.583 421.848 213.599C421.543 213.639 421.258 213.704 420.993 213.793C420.731 213.879 420.519 214.01 420.356 214.186C420.197 214.358 420.118 214.594 420.118 214.892C420.118 215.3 420.269 215.608 420.57 215.817C420.875 216.022 421.261 216.125 421.729 216.125ZM430.075 217.159C429.438 217.159 428.876 216.998 428.389 216.677C427.902 216.352 427.521 215.895 427.246 215.305C426.971 214.711 426.833 214.01 426.833 213.202C426.833 212.4 426.971 211.704 427.246 211.114C427.521 210.524 427.904 210.068 428.394 209.746C428.885 209.425 429.451 209.264 430.094 209.264C430.592 209.264 430.984 209.347 431.273 209.513C431.564 209.675 431.786 209.861 431.939 210.07C432.095 210.275 432.216 210.444 432.302 210.577H432.401V206.818H433.575V217H432.441V215.827H432.302C432.216 215.966 432.093 216.142 431.934 216.354C431.775 216.562 431.548 216.75 431.253 216.915C430.958 217.078 430.565 217.159 430.075 217.159ZM430.234 216.105C430.704 216.105 431.102 215.982 431.427 215.737C431.752 215.489 431.999 215.146 432.168 214.708C432.337 214.267 432.421 213.759 432.421 213.182C432.421 212.612 432.338 212.113 432.173 211.685C432.007 211.254 431.762 210.92 431.437 210.681C431.112 210.439 430.711 210.318 430.234 210.318C429.737 210.318 429.322 210.446 428.991 210.701C428.663 210.953 428.416 211.296 428.25 211.73C428.088 212.161 428.006 212.645 428.006 213.182C428.006 213.725 428.089 214.219 428.255 214.663C428.424 215.104 428.673 215.455 429.001 215.717C429.332 215.976 429.743 216.105 430.234 216.105ZM435.886 217V209.364H437.06V217H435.886ZM436.483 208.091C436.254 208.091 436.057 208.013 435.891 207.857C435.729 207.701 435.648 207.514 435.648 207.295C435.648 207.077 435.729 206.889 435.891 206.734C436.057 206.578 436.254 206.5 436.483 206.5C436.712 206.5 436.907 206.578 437.07 206.734C437.235 206.889 437.318 207.077 437.318 207.295C437.318 207.514 437.235 207.701 437.07 207.857C436.907 208.013 436.712 208.091 436.483 208.091ZM440.382 212.406V217H439.209V209.364H440.342V210.557H440.442C440.621 210.169 440.892 209.857 441.257 209.622C441.622 209.384 442.092 209.264 442.669 209.264C443.186 209.264 443.638 209.37 444.026 209.582C444.414 209.791 444.715 210.109 444.931 210.537C445.146 210.961 445.254 211.498 445.254 212.148V217H444.081V212.227C444.081 211.627 443.925 211.16 443.613 210.825C443.302 210.487 442.874 210.318 442.331 210.318C441.956 210.318 441.622 210.399 441.327 210.562C441.035 210.724 440.805 210.961 440.635 211.273C440.466 211.584 440.382 211.962 440.382 212.406ZM450.48 220.023C449.914 220.023 449.426 219.95 449.019 219.804C448.611 219.661 448.271 219.473 448 219.237C447.731 219.005 447.517 218.757 447.358 218.491L448.293 217.835C448.399 217.974 448.533 218.134 448.696 218.312C448.858 218.495 449.08 218.652 449.362 218.785C449.647 218.921 450.02 218.989 450.48 218.989C451.097 218.989 451.606 218.839 452.007 218.541C452.408 218.243 452.608 217.776 452.608 217.139V215.588H452.509C452.423 215.727 452.3 215.9 452.141 216.105C451.985 216.307 451.76 216.488 451.465 216.647C451.173 216.803 450.779 216.881 450.282 216.881C449.665 216.881 449.112 216.735 448.621 216.443C448.134 216.152 447.748 215.727 447.463 215.17C447.181 214.614 447.04 213.937 447.04 213.142C447.04 212.36 447.178 211.679 447.453 211.099C447.728 210.515 448.111 210.065 448.601 209.746C449.092 209.425 449.658 209.264 450.301 209.264C450.799 209.264 451.193 209.347 451.485 209.513C451.78 209.675 452.005 209.861 452.161 210.07C452.32 210.275 452.443 210.444 452.529 210.577H452.648V209.364H453.782V217.219C453.782 217.875 453.632 218.409 453.334 218.82C453.039 219.234 452.641 219.537 452.141 219.729C451.644 219.925 451.09 220.023 450.48 220.023ZM450.441 215.827C450.911 215.827 451.309 215.719 451.634 215.504C451.959 215.288 452.206 214.978 452.375 214.574C452.544 214.17 452.628 213.686 452.628 213.122C452.628 212.572 452.545 212.086 452.38 211.665C452.214 211.245 451.969 210.915 451.644 210.676C451.319 210.437 450.918 210.318 450.441 210.318C449.944 210.318 449.529 210.444 449.198 210.696C448.87 210.948 448.623 211.286 448.457 211.71C448.295 212.134 448.213 212.605 448.213 213.122C448.213 213.652 448.296 214.121 448.462 214.529C448.631 214.933 448.88 215.252 449.208 215.484C449.539 215.712 449.95 215.827 450.441 215.827ZM456.784 217.08C456.539 217.08 456.329 216.992 456.153 216.816C455.977 216.64 455.89 216.43 455.89 216.185C455.89 215.939 455.977 215.729 456.153 215.553C456.329 215.378 456.539 215.29 456.784 215.29C457.03 215.29 457.24 215.378 457.416 215.553C457.592 215.729 457.679 215.939 457.679 216.185C457.679 216.347 457.638 216.496 457.555 216.632C457.475 216.768 457.368 216.877 457.232 216.96C457.099 217.04 456.95 217.08 456.784 217.08ZM460.64 217.08C460.395 217.08 460.184 216.992 460.009 216.816C459.833 216.64 459.745 216.43 459.745 216.185C459.745 215.939 459.833 215.729 460.009 215.553C460.184 215.378 460.395 215.29 460.64 215.29C460.885 215.29 461.096 215.378 461.271 215.553C461.447 215.729 461.535 215.939 461.535 216.185C461.535 216.347 461.493 216.496 461.411 216.632C461.331 216.768 461.223 216.877 461.087 216.96C460.955 217.04 460.806 217.08 460.64 217.08ZM464.495 217.08C464.25 217.08 464.04 216.992 463.864 216.816C463.688 216.64 463.6 216.43 463.6 216.185C463.6 215.939 463.688 215.729 463.864 215.553C464.04 215.378 464.25 215.29 464.495 215.29C464.741 215.29 464.951 215.378 465.127 215.553C465.302 215.729 465.39 215.939 465.39 216.185C465.39 216.347 465.349 216.496 465.266 216.632C465.186 216.768 465.079 216.877 464.943 216.96C464.81 217.04 464.661 217.08 464.495 217.08Z" fill="white"/>
<defs>
<filter id="filter0_d_102_6" x="502.989" y="147.021" width="76.2581" height="18.8983" filterUnits="userSpaceOnUse" color-interpolation-filters="sRGB">
<feFlood flood-opacity="0" result="BackgroundImageFix"/>
<feColorMatrix in="SourceAlpha" type="matrix" values="0 0 0 0 0 0 0 0 0 0 0 0 0 0 0 0 0 0 127 0" result="hardAlpha"/>
<feOffset dy="4"/>
<feGaussianBlur stdDeviation="2"/>
<feComposite in2="hardAlpha" operator="out"/>
<feColorMatrix type="matrix" values="0 0 0 0 0 0 0 0 0 0 0 0 0 0 0 0 0 0 0.25 0"/>
<feBlend mode="normal" in2="BackgroundImageFix" result="effect1_dropShadow_102_6"/>
<feBlend mode="normal" in="SourceGraphic" in2="effect1_dropShadow_102_6" result="shape"/>
</filter>
<filter id="filter1_d_102_6" x="502.903" y="141.479" width="82.4346" height="16.0522" filterUnits="userSpaceOnUse" color-interpolation-filters="sRGB">
<feFlood flood-opacity="0" result="BackgroundImageFix"/>
<feColorMatrix in="SourceAlpha" type="matrix" values="0 0 0 0 0 0 0 0 0 0 0 0 0 0 0 0 0 0 127 0" result="hardAlpha"/>
<feOffset dy="4"/>
<feGaussianBlur stdDeviation="2"/>
<feComposite in2="hardAlpha" operator="out"/>
<feColorMatrix type="matrix" values="0 0 0 0 0 0 0 0 0 0 0 0 0 0 0 0 0 0 0.25 0"/>
<feBlend mode="normal" in2="BackgroundImageFix" result="effect1_dropShadow_102_6"/>
<feBlend mode="normal" in="SourceGraphic" in2="effect1_dropShadow_102_6" result="shape"/>
</filter>
<filter id="filter2_d_102_6" x="482.099" y="132.485" width="27.3622" height="35.3364" filterUnits="userSpaceOnUse" color-interpolation-filters="sRGB">
<feFlood flood-opacity="0" result="BackgroundImageFix"/>
<feColorMatrix in="SourceAlpha" type="matrix" values="0 0 0 0 0 0 0 0 0 0 0 0 0 0 0 0 0 0 127 0" result="hardAlpha"/>
<feOffset dy="4"/>
<feGaussianBlur stdDeviation="2"/>
<feComposite in2="hardAlpha" operator="out"/>
<feColorMatrix type="matrix" values="0 0 0 0 0 0 0 0 0 0 0 0 0 0 0 0 0 0 0.25 0"/>
<feBlend mode="normal" in2="BackgroundImageFix" result="effect1_dropShadow_102_6"/>
<feBlend mode="normal" in="SourceGraphic" in2="effect1_dropShadow_102_6" result="shape"/>
</filter>
<filter id="filter3_d_102_6" x="514.565" y="138.338" width="52.8695" height="13.4466" filterUnits="userSpaceOnUse" color-interpolation-filters="sRGB">
<feFlood flood-opacity="0" result="BackgroundImageFix"/>
<feColorMatrix in="SourceAlpha" type="matrix" values="0 0 0 0 0 0 0 0 0 0 0 0 0 0 0 0 0 0 127 0" result="hardAlpha"/>
<feOffset dy="4"/>
<feGaussianBlur stdDeviation="2"/>
<feComposite in2="hardAlpha" operator="out"/>
<feColorMatrix type="matrix" values="0 0 0 0 0 0 0 0 0 0 0 0 0 0 0 0 0 0 0.25 0"/>
<feBlend mode="normal" in2="BackgroundImageFix" result="effect1_dropShadow_102_6"/>
<feBlend mode="normal" in="SourceGraphic" in2="effect1_dropShadow_102_6" result="shape"/>
</filter>
<clipPath id="clip0_102_6">
<rect width="99" height="39" fill="white" transform="translate(484 124)"/>
</clipPath>
</defs>
</svg>
