<svg width="608" height="307" viewBox="0 0 608 307" fill="none" xmlns="http://www.w3.org/2000/svg">
<path fill-rule="evenodd" clip-rule="evenodd" d="M598.517 252.164H469.342C464.852 252.164 461.212 248.524 461.212 244.033V45.7444C461.212 41.2539 464.852 37.6137 469.342 37.6137H598.517C603.007 37.6137 606.647 41.2539 606.647 45.7444V244.033C606.647 248.524 603.007 252.164 598.517 252.164Z" fill="#FDFDFD" stroke="#7E89A3" stroke-width="2"/>
<path fill-rule="evenodd" clip-rule="evenodd" d="M598.517 252.164H469.342C464.852 252.164 461.212 248.524 461.212 244.033V45.7444C461.212 41.2539 464.852 37.6137 469.342 37.6137H598.517C603.007 37.6137 606.647 41.2539 606.647 45.7444V244.033C606.647 248.524 603.007 252.164 598.517 252.164Z" fill="#FDFDFD" stroke="#7E89A3" stroke-width="2"/>
<path d="M595.819 59.2212H472.66V230.444H595.819V59.2212Z" fill="white" stroke="#7E89A3"/>
<path d="M534.254 246.099C537.252 246.099 539.682 243.668 539.682 240.669C539.682 237.67 537.252 235.239 534.254 235.239C531.256 235.239 528.826 237.67 528.826 240.669C528.826 243.668 531.256 246.099 534.254 246.099Z" stroke="#7E89A3"/>
<path d="M533.556 51.0838C534.674 51.0838 535.58 50.1775 535.58 49.0596C535.58 47.9417 534.674 47.0354 533.556 47.0354C532.439 47.0354 531.533 47.9417 531.533 49.0596C531.533 50.1775 532.439 51.0838 533.556 51.0838Z" stroke="#7E89A3"/>
<rect x="473" y="59" width="123" height="171" fill="#555555"/>
<g clip-path="url(#clip0_102_6)">
<g filter="url(#filter0_d_102_6)">
<path d="M506.989 157.769V147.166H509.261V151.841H509.403L513.27 147.166H515.993L512.006 151.914L516.041 157.769H513.323L510.379 153.41L509.261 154.756V157.769H506.989ZM526.446 152.468C526.446 153.624 526.224 154.608 525.779 155.419C525.339 156.23 524.737 156.85 523.975 157.278C523.215 157.702 522.362 157.914 521.414 157.914C520.459 157.914 519.602 157.7 518.843 157.272C518.084 156.844 517.484 156.225 517.043 155.414C516.602 154.603 516.382 153.621 516.382 152.468C516.382 151.312 516.602 150.328 517.043 149.517C517.484 148.706 518.084 148.088 518.843 147.663C519.602 147.235 520.459 147.021 521.414 147.021C522.362 147.021 523.215 147.235 523.975 147.663C524.737 148.088 525.339 148.706 525.779 149.517C526.224 150.328 526.446 151.312 526.446 152.468ZM524.142 152.468C524.142 151.719 524.029 151.087 523.801 150.573C523.577 150.059 523.261 149.669 522.852 149.403C522.442 149.137 521.963 149.004 521.414 149.004C520.865 149.004 520.385 149.137 519.976 149.403C519.567 149.669 519.249 150.059 519.021 150.573C518.797 151.087 518.685 151.719 518.685 152.468C518.685 153.217 518.797 153.848 519.021 154.363C519.249 154.877 519.567 155.267 519.976 155.533C520.385 155.799 520.865 155.932 521.414 155.932C521.963 155.932 522.442 155.799 522.852 155.533C523.261 155.267 523.577 154.877 523.801 154.363C524.029 153.848 524.142 153.217 524.142 152.468ZM528.129 157.769V147.166H530.401V155.921H535.008V157.769H528.129ZM540.322 157.769H536.512V147.166H540.354C541.434 147.166 542.365 147.379 543.145 147.803C543.925 148.224 544.525 148.83 544.945 149.62C545.368 150.411 545.58 151.356 545.58 152.458C545.58 153.562 545.368 154.511 544.945 155.305C544.525 156.099 543.922 156.708 543.135 157.133C542.351 157.557 541.414 157.769 540.322 157.769ZM538.785 155.849H540.228C540.899 155.849 541.464 155.731 541.922 155.497C542.384 155.258 542.731 154.891 542.962 154.394C543.196 153.893 543.313 153.248 543.313 152.458C543.313 151.674 543.196 151.034 542.962 150.537C542.731 150.04 542.386 149.674 541.928 149.439C541.47 149.204 540.905 149.087 540.233 149.087H538.785V155.849ZM553.092 150.216C553.051 149.798 552.87 149.474 552.552 149.242C552.234 149.011 551.802 148.895 551.256 148.895C550.885 148.895 550.572 148.947 550.317 149.051C550.061 149.151 549.866 149.291 549.729 149.47C549.596 149.65 549.53 149.853 549.53 150.081C549.522 150.271 549.563 150.437 549.65 150.578C549.741 150.72 549.866 150.842 550.023 150.946C550.18 151.046 550.362 151.134 550.569 151.21C550.775 151.282 550.995 151.344 551.23 151.396L552.195 151.624C552.664 151.728 553.094 151.866 553.486 152.038C553.878 152.211 554.217 152.423 554.504 152.675C554.791 152.927 555.013 153.224 555.17 153.565C555.331 153.907 555.413 154.299 555.417 154.741C555.413 155.39 555.246 155.952 554.913 156.429C554.584 156.901 554.109 157.269 553.486 157.531C552.867 157.79 552.12 157.92 551.245 157.92C550.378 157.92 549.622 157.788 548.979 157.526C548.339 157.264 547.838 156.876 547.478 156.361C547.121 155.844 546.934 155.203 546.917 154.44H549.115C549.14 154.796 549.243 155.093 549.425 155.331C549.61 155.566 549.857 155.743 550.165 155.864C550.476 155.982 550.828 156.04 551.219 156.04C551.604 156.04 551.938 155.985 552.221 155.875C552.508 155.764 552.73 155.611 552.888 155.414C553.045 155.217 553.124 154.991 553.124 154.736C553.124 154.497 553.052 154.297 552.909 154.135C552.769 153.973 552.563 153.835 552.29 153.721C552.02 153.607 551.69 153.503 551.298 153.41L550.128 153.12C549.222 152.903 548.507 152.563 547.982 152.1C547.457 151.638 547.196 151.015 547.2 150.231C547.196 149.589 547.37 149.028 547.719 148.549C548.073 148.069 548.557 147.694 549.173 147.425C549.788 147.156 550.488 147.021 551.272 147.021C552.069 147.021 552.765 147.156 553.36 147.425C553.958 147.694 554.424 148.069 554.756 148.549C555.088 149.028 555.26 149.584 555.27 150.216H553.092ZM561.248 147.166H563.494V154.559C563.494 155.243 563.338 155.837 563.027 156.341C562.719 156.844 562.291 157.233 561.741 157.505C561.192 157.778 560.554 157.914 559.826 157.914C559.179 157.914 558.591 157.802 558.063 157.578C557.538 157.35 557.122 157.005 556.814 156.542C556.506 156.076 556.354 155.491 556.358 154.787H558.619C558.626 155.067 558.684 155.307 558.792 155.507C558.904 155.704 559.056 155.856 559.249 155.963C559.445 156.066 559.676 156.118 559.942 156.118C560.221 156.118 560.458 156.059 560.65 155.942C560.846 155.821 560.994 155.645 561.096 155.414C561.197 155.183 561.248 154.898 561.248 154.559V147.166ZM575.247 152.468C575.247 153.624 575.025 154.608 574.581 155.419C574.14 156.23 573.538 156.85 572.776 157.278C572.017 157.702 571.164 157.914 570.215 157.914C569.26 157.914 568.403 157.7 567.644 157.272C566.885 156.844 566.285 156.225 565.845 155.414C565.404 154.603 565.183 153.621 565.183 152.468C565.183 151.312 565.404 150.328 565.845 149.517C566.285 148.706 566.885 148.088 567.644 147.663C568.403 147.235 569.26 147.021 570.215 147.021C571.164 147.021 572.017 147.235 572.776 147.663C573.538 148.088 574.14 148.706 574.581 149.517C575.025 150.328 575.247 151.312 575.247 152.468ZM572.944 152.468C572.944 151.719 572.83 151.087 572.603 150.573C572.379 150.059 572.062 149.669 571.653 149.403C571.244 149.137 570.765 149.004 570.215 149.004C569.666 149.004 569.187 149.137 568.778 149.403C568.368 149.669 568.05 150.059 567.823 150.573C567.599 151.087 567.487 151.719 567.487 152.468C567.487 153.217 567.599 153.848 567.823 154.363C568.05 154.877 568.368 155.267 568.778 155.533C569.187 155.799 569.666 155.932 570.215 155.932C570.765 155.932 571.244 155.799 571.653 155.533C572.062 155.267 572.379 154.877 572.603 154.363C572.83 153.848 572.944 153.217 572.944 152.468Z" fill="white"/>
</g>
<g filter="url(#filter1_d_102_6)">
<path d="M581.176 145.891C581.392 145.678 581.392 145.332 581.176 145.118L577.649 141.639C577.433 141.425 577.082 141.425 576.865 141.639C576.649 141.852 576.649 142.198 576.865 142.412L580 145.505L576.865 148.597C576.649 148.811 576.649 149.157 576.865 149.371C577.082 149.584 577.433 149.584 577.649 149.371L581.176 145.891ZM506.903 146.051H580.784V144.958H506.903V146.051Z" fill="white"/>
</g>
<g filter="url(#filter2_d_102_6)">
<path d="M501.945 139.474C501.788 138.163 501.15 137.144 500.03 136.419C498.911 135.695 497.538 135.332 495.911 135.332C494.722 135.332 493.681 135.522 492.789 135.902C491.906 136.281 491.215 136.803 490.716 137.468C490.227 138.132 489.982 138.887 489.982 139.733C489.982 140.441 490.152 141.049 490.493 141.558C490.843 142.058 491.289 142.477 491.831 142.813C492.374 143.141 492.942 143.413 493.537 143.629C494.131 143.836 494.678 144.004 495.177 144.134L497.905 144.859C498.605 145.04 499.383 145.29 500.24 145.609C501.106 145.929 501.932 146.364 502.719 146.917C503.515 147.46 504.171 148.159 504.687 149.013C505.203 149.868 505.461 150.916 505.461 152.159C505.461 153.591 505.081 154.885 504.32 156.042C503.568 157.198 502.466 158.117 501.014 158.799C499.571 159.48 497.818 159.821 495.754 159.821C493.83 159.821 492.164 159.515 490.756 158.902C489.357 158.289 488.255 157.435 487.45 156.339C486.654 155.243 486.204 153.971 486.099 152.521H489.457C489.545 153.522 489.886 154.35 490.48 155.006C491.084 155.653 491.845 156.137 492.763 156.456C493.69 156.766 494.687 156.922 495.754 156.922C496.996 156.922 498.111 156.723 499.099 156.326C500.087 155.921 500.87 155.36 501.447 154.644C502.024 153.919 502.313 153.073 502.313 152.107C502.313 151.227 502.063 150.51 501.565 149.958C501.067 149.406 500.411 148.957 499.597 148.612C498.784 148.267 497.905 147.965 496.961 147.706L493.655 146.774C491.556 146.179 489.894 145.329 488.67 144.224C487.446 143.12 486.833 141.674 486.833 139.888C486.833 138.404 487.24 137.11 488.053 136.005C488.876 134.892 489.977 134.029 491.359 133.417C492.75 132.795 494.302 132.485 496.016 132.485C497.748 132.485 499.287 132.791 500.634 133.404C501.98 134.008 503.047 134.836 503.834 135.889C504.63 136.942 505.05 138.137 505.094 139.474H501.945Z" fill="white"/>
</g>
<g filter="url(#filter3_d_102_6)">
<path d="M519.538 138.41V143.712H518.565V138.41H519.538ZM525.008 138.41V143.712H524.142L521.61 140.101H521.566V143.712H520.592V138.41H521.463L523.993 142.024H524.04V138.41H525.008ZM530.484 138.41V143.712H529.618L527.086 140.101H527.042V143.712H526.069V138.41H526.94L529.469 142.024H529.516V138.41H530.484ZM536.346 141.061C536.346 141.632 536.237 142.122 536.02 142.529C535.805 142.934 535.511 143.245 535.139 143.461C534.768 143.677 534.347 143.784 533.877 143.784C533.407 143.784 532.985 143.677 532.612 143.461C532.242 143.243 531.948 142.932 531.731 142.526C531.516 142.119 531.408 141.631 531.408 141.061C531.408 140.49 531.516 140.001 531.731 139.596C531.948 139.189 532.242 138.877 532.612 138.661C532.985 138.446 533.407 138.338 533.877 138.338C534.347 138.338 534.768 138.446 535.139 138.661C535.511 138.877 535.805 139.189 536.02 139.596C536.237 140.001 536.346 140.49 536.346 141.061ZM535.367 141.061C535.367 140.659 535.303 140.32 535.176 140.044C535.05 139.766 534.875 139.556 534.651 139.415C534.427 139.271 534.169 139.2 533.877 139.2C533.585 139.2 533.327 139.271 533.103 139.415C532.879 139.556 532.704 139.766 532.576 140.044C532.45 140.32 532.387 140.659 532.387 141.061C532.387 141.463 532.45 141.803 532.576 142.081C532.704 142.357 532.879 142.567 533.103 142.71C533.327 142.852 533.585 142.922 533.877 142.922C534.169 142.922 534.427 142.852 534.651 142.71C534.875 142.567 535.05 142.357 535.176 142.081C535.303 141.803 535.367 141.463 535.367 141.061ZM537.696 138.41L539.095 142.583H539.15L540.546 138.41H541.616L539.722 143.712H538.52L536.628 138.41H537.696ZM542.386 143.712H541.347L543.239 138.41H544.44L546.335 143.712H545.296L543.861 139.498H543.819L542.386 143.712ZM542.42 141.633H545.254V142.405H542.42V141.633ZM546.157 139.215V138.41H550.444V139.215H548.783V143.712H547.818V139.215H546.157ZM552.244 138.41V143.712H551.27V138.41H552.244ZM558.099 141.061C558.099 141.632 557.99 142.122 557.773 142.529C557.558 142.934 557.264 143.245 556.892 143.461C556.521 143.677 556.1 143.784 555.63 143.784C555.16 143.784 554.738 143.677 554.365 143.461C553.994 143.243 553.701 142.932 553.484 142.526C553.269 142.119 553.161 141.631 553.161 141.061C553.161 140.49 553.269 140.001 553.484 139.596C553.701 139.189 553.994 138.877 554.365 138.661C554.738 138.446 555.16 138.338 555.63 138.338C556.1 138.338 556.521 138.446 556.892 138.661C557.264 138.877 557.558 139.189 557.773 139.596C557.99 140.001 558.099 140.49 558.099 141.061ZM557.12 141.061C557.12 140.659 557.056 140.32 556.929 140.044C556.803 139.766 556.628 139.556 556.404 139.415C556.18 139.271 555.922 139.2 555.63 139.2C555.338 139.2 555.08 139.271 554.856 139.415C554.632 139.556 554.456 139.766 554.329 140.044C554.203 140.32 554.14 140.659 554.14 141.061C554.14 141.463 554.203 141.803 554.329 142.081C554.456 142.357 554.632 142.567 554.856 142.71C555.08 142.852 555.338 142.922 555.63 142.922C555.922 142.922 556.18 142.852 556.404 142.71C556.628 142.567 556.803 142.357 556.929 142.081C557.056 141.803 557.12 141.463 557.12 141.061ZM563.435 138.41V143.712H562.569L560.037 140.101H559.992V143.712H559.019V138.41H559.89L562.419 142.024H562.466V138.41H563.435Z" fill="white"/>
</g>
</g>
<path fill-rule="evenodd" clip-rule="evenodd" d="M402.96 1H67.3166C58.184 1 50.3991 8.49688 50.3991 17.7827V238.643H419.877V17.7827C419.877 8.4962 412.121 1 402.96 1Z" fill="#FEFEFE" stroke="#8492A5" stroke-width="2"/>
<path d="M235.815 16.5708C237.31 16.5708 238.522 15.3584 238.522 13.8628C238.522 12.3673 237.31 11.1549 235.815 11.1549C234.32 11.1549 233.108 12.3673 233.108 13.8628C233.108 15.3584 234.32 16.5708 235.815 16.5708Z" stroke="#8492A5" stroke-width="2"/>
<path fill-rule="evenodd" clip-rule="evenodd" d="M434.638 259.617H35.7066C14.9678 259.617 1 252.498 1 249.471V240.268C1 239.358 1.90339 238.624 3.02672 238.624H467.317C468.441 238.624 469.346 239.358 469.346 240.268V249.833C469.341 252.226 458.525 259.617 434.638 259.617Z" fill="#FDFDFD" stroke="#8492A5" stroke-width="2"/>
<path d="M1.33835 248.44H468.087" stroke="#8492A5" stroke-linecap="square"/>
<path d="M404.363 27.4027H65.2865V225.09H404.363V27.4027Z" fill="white" stroke="#8492A5"/>
<path fill-rule="evenodd" clip-rule="evenodd" d="M285.891 239.301V241.391C285.891 242.881 282.958 243.331 280.739 243.331H189.674C187.339 243.331 184.386 242.882 184.386 241.391V239.301" fill="white"/>
<path d="M285.891 239.301V241.391C285.891 242.881 282.958 243.331 280.739 243.331H189.674C187.339 243.331 184.386 242.882 184.386 241.391V239.301" stroke="#8492A5"/>
<rect x="65" y="27" width="339" height="198" fill="#555555"/>
<path d="M142.495 130L138.518 115.455H140.308L143.347 127.301H143.49L146.586 115.455H148.575L151.671 127.301H151.813L154.853 115.455H156.643L152.666 130H150.847L147.637 118.409H147.524L144.313 130H142.495ZM170.427 122.727C170.427 124.261 170.15 125.587 169.596 126.705C169.042 127.822 168.282 128.684 167.316 129.29C166.35 129.896 165.247 130.199 164.006 130.199C162.766 130.199 161.662 129.896 160.697 129.29C159.731 128.684 158.971 127.822 158.417 126.705C157.863 125.587 157.586 124.261 157.586 122.727C157.586 121.193 157.863 119.867 158.417 118.75C158.971 117.633 159.731 116.771 160.697 116.165C161.662 115.559 162.766 115.256 164.006 115.256C165.247 115.256 166.35 115.559 167.316 116.165C168.282 116.771 169.042 117.633 169.596 118.75C170.15 119.867 170.427 121.193 170.427 122.727ZM168.722 122.727C168.722 121.468 168.511 120.405 168.09 119.538C167.673 118.672 167.108 118.016 166.393 117.571C165.682 117.126 164.887 116.903 164.006 116.903C163.126 116.903 162.328 117.126 161.613 117.571C160.903 118.016 160.337 118.672 159.915 119.538C159.499 120.405 159.29 121.468 159.29 122.727C159.29 123.987 159.499 125.05 159.915 125.916C160.337 126.783 160.903 127.438 161.613 127.884C162.328 128.329 163.126 128.551 164.006 128.551C164.887 128.551 165.682 128.329 166.393 127.884C167.108 127.438 167.673 126.783 168.09 125.916C168.511 125.05 168.722 123.987 168.722 122.727ZM173.388 130V115.455H178.303C179.439 115.455 180.372 115.649 181.101 116.037C181.831 116.42 182.37 116.948 182.721 117.621C183.071 118.293 183.246 119.058 183.246 119.915C183.246 120.772 183.071 121.532 182.721 122.195C182.37 122.857 181.833 123.378 181.108 123.757C180.384 124.131 179.458 124.318 178.331 124.318H174.354V122.727H178.275C179.051 122.727 179.676 122.614 180.15 122.386C180.628 122.159 180.974 121.837 181.187 121.42C181.404 120.999 181.513 120.497 181.513 119.915C181.513 119.332 181.404 118.823 181.187 118.388C180.969 117.952 180.621 117.616 180.143 117.379C179.664 117.138 179.032 117.017 178.246 117.017H175.15V130H173.388ZM180.235 123.466L183.814 130H181.769L178.246 123.466H180.235ZM186.181 130V115.455H187.943V122.67H188.113L194.647 115.455H196.948L190.84 122.017L196.948 130H194.818L189.761 123.239L187.943 125.284V130H186.181ZM206.615 115.455V130H204.853V115.455H206.615ZM221.68 115.455V130H219.976L212.05 118.58H211.907V130H210.146V115.455H211.851L219.805 126.903H219.947V115.455H221.68ZM230.83 130V115.455H235.744C236.886 115.455 237.818 115.661 238.543 116.072C239.272 116.48 239.812 117.031 240.162 117.727C240.512 118.423 240.688 119.2 240.688 120.057C240.688 120.914 240.512 121.693 240.162 122.393C239.816 123.094 239.281 123.653 238.557 124.07C237.833 124.482 236.905 124.688 235.773 124.688H232.25V123.125H235.716C236.497 123.125 237.125 122.99 237.598 122.72C238.072 122.45 238.415 122.086 238.628 121.626C238.846 121.162 238.955 120.639 238.955 120.057C238.955 119.474 238.846 118.954 238.628 118.494C238.415 118.035 238.069 117.675 237.591 117.415C237.113 117.15 236.478 117.017 235.688 117.017H232.591V130H230.83ZM243.525 130V115.455H248.44C249.576 115.455 250.509 115.649 251.238 116.037C251.967 116.42 252.507 116.948 252.857 117.621C253.208 118.293 253.383 119.058 253.383 119.915C253.383 120.772 253.208 121.532 252.857 122.195C252.507 122.857 251.97 123.378 251.245 123.757C250.521 124.131 249.595 124.318 248.468 124.318H244.491V122.727H248.411C249.188 122.727 249.813 122.614 250.286 122.386C250.765 122.159 251.11 121.837 251.323 121.42C251.541 120.999 251.65 120.497 251.65 119.915C251.65 119.332 251.541 118.823 251.323 118.388C251.106 117.952 250.758 117.616 250.279 117.379C249.801 117.138 249.169 117.017 248.383 117.017H245.286V130H243.525ZM250.372 123.466L253.951 130H251.906L248.383 123.466H250.372ZM268.591 122.727C268.591 124.261 268.314 125.587 267.76 126.705C267.206 127.822 266.446 128.684 265.48 129.29C264.514 129.896 263.411 130.199 262.17 130.199C260.93 130.199 259.827 129.896 258.861 129.29C257.895 128.684 257.135 127.822 256.581 126.705C256.027 125.587 255.75 124.261 255.75 122.727C255.75 121.193 256.027 119.867 256.581 118.75C257.135 117.633 257.895 116.771 258.861 116.165C259.827 115.559 260.93 115.256 262.17 115.256C263.411 115.256 264.514 115.559 265.48 116.165C266.446 116.771 267.206 117.633 267.76 118.75C268.314 119.867 268.591 121.193 268.591 122.727ZM266.886 122.727C266.886 121.468 266.675 120.405 266.254 119.538C265.837 118.672 265.272 118.016 264.557 117.571C263.846 117.126 263.051 116.903 262.17 116.903C261.29 116.903 260.492 117.126 259.777 117.571C259.067 118.016 258.501 118.672 258.079 119.538C257.663 120.405 257.454 121.468 257.454 122.727C257.454 123.987 257.663 125.05 258.079 125.916C258.501 126.783 259.067 127.438 259.777 127.884C260.492 128.329 261.29 128.551 262.17 128.551C263.051 128.551 263.846 128.329 264.557 127.884C265.272 127.438 265.837 126.783 266.254 125.916C266.675 125.05 266.886 123.987 266.886 122.727ZM281.496 120C281.339 119.522 281.133 119.093 280.878 118.714C280.627 118.331 280.326 118.004 279.976 117.734C279.63 117.464 279.237 117.259 278.797 117.116C278.356 116.974 277.873 116.903 277.348 116.903C276.486 116.903 275.702 117.126 274.997 117.571C274.291 118.016 273.73 118.672 273.314 119.538C272.897 120.405 272.689 121.468 272.689 122.727C272.689 123.987 272.899 125.05 273.321 125.916C273.742 126.783 274.313 127.438 275.032 127.884C275.752 128.329 276.562 128.551 277.461 128.551C278.295 128.551 279.029 128.374 279.663 128.018C280.302 127.659 280.8 127.152 281.155 126.499C281.515 125.84 281.694 125.066 281.694 124.176L282.234 124.29H277.859V122.727H283.399V124.29C283.399 125.488 283.143 126.529 282.632 127.415C282.125 128.3 281.425 128.987 280.53 129.474C279.64 129.957 278.617 130.199 277.461 130.199C276.174 130.199 275.042 129.896 274.067 129.29C273.096 128.684 272.338 127.822 271.794 126.705C271.254 125.587 270.984 124.261 270.984 122.727C270.984 121.577 271.138 120.542 271.446 119.624C271.758 118.7 272.199 117.914 272.767 117.266C273.335 116.617 274.007 116.12 274.784 115.774C275.56 115.429 276.415 115.256 277.348 115.256C278.115 115.256 278.83 115.372 279.493 115.604C280.16 115.831 280.755 116.155 281.275 116.577C281.801 116.993 282.239 117.493 282.589 118.075C282.94 118.653 283.181 119.295 283.314 120H281.496ZM286.416 130V115.455H291.33C292.467 115.455 293.4 115.649 294.129 116.037C294.858 116.42 295.398 116.948 295.748 117.621C296.098 118.293 296.274 119.058 296.274 119.915C296.274 120.772 296.098 121.532 295.748 122.195C295.398 122.857 294.86 123.378 294.136 123.757C293.411 124.131 292.486 124.318 291.359 124.318H287.382V122.727H291.302C292.079 122.727 292.704 122.614 293.177 122.386C293.655 122.159 294.001 121.837 294.214 121.42C294.432 120.999 294.541 120.497 294.541 119.915C294.541 119.332 294.432 118.823 294.214 118.388C293.996 117.952 293.648 117.616 293.17 117.379C292.692 117.138 292.06 117.017 291.274 117.017H288.177V130H286.416ZM293.262 123.466L296.842 130H294.796L291.274 123.466H293.262ZM299.209 130V115.455H307.987V117.017H300.97V121.932H307.532V123.494H300.97V128.438H308.101V130H299.209ZM319.116 119.091C319.031 118.371 318.685 117.812 318.079 117.415C317.473 117.017 316.73 116.818 315.849 116.818C315.205 116.818 314.642 116.922 314.159 117.131C313.681 117.339 313.307 117.625 313.037 117.99C312.772 118.355 312.639 118.769 312.639 119.233C312.639 119.621 312.731 119.955 312.916 120.234C313.105 120.509 313.347 120.739 313.64 120.923C313.934 121.103 314.242 121.252 314.564 121.371C314.886 121.484 315.182 121.577 315.452 121.648L316.929 122.045C317.308 122.145 317.729 122.282 318.193 122.457C318.662 122.633 319.109 122.872 319.535 123.175C319.966 123.473 320.321 123.857 320.601 124.325C320.88 124.794 321.02 125.369 321.02 126.051C321.02 126.837 320.814 127.547 320.402 128.182C319.995 128.816 319.398 129.321 318.612 129.695C317.831 130.069 316.881 130.256 315.764 130.256C314.722 130.256 313.82 130.088 313.058 129.751C312.3 129.415 311.704 128.946 311.268 128.345C310.837 127.744 310.594 127.045 310.537 126.25H312.355C312.402 126.799 312.587 127.254 312.909 127.614C313.236 127.969 313.648 128.234 314.145 128.409C314.647 128.58 315.186 128.665 315.764 128.665C316.436 128.665 317.04 128.556 317.575 128.338C318.11 128.116 318.534 127.808 318.846 127.415C319.159 127.017 319.315 126.553 319.315 126.023C319.315 125.54 319.18 125.147 318.91 124.844C318.64 124.541 318.285 124.295 317.845 124.105C317.405 123.916 316.929 123.75 316.417 123.608L314.628 123.097C313.491 122.77 312.592 122.304 311.929 121.697C311.266 121.091 310.934 120.298 310.934 119.318C310.934 118.504 311.155 117.794 311.595 117.188C312.04 116.577 312.637 116.103 313.385 115.767C314.138 115.426 314.978 115.256 315.906 115.256C316.844 115.256 317.677 115.424 318.406 115.76C319.135 116.091 319.713 116.546 320.139 117.124C320.57 117.701 320.797 118.357 320.821 119.091H319.116ZM331.87 119.091C331.785 118.371 331.439 117.812 330.833 117.415C330.227 117.017 329.484 116.818 328.603 116.818C327.959 116.818 327.396 116.922 326.913 117.131C326.435 117.339 326.061 117.625 325.791 117.99C325.526 118.355 325.393 118.769 325.393 119.233C325.393 119.621 325.485 119.955 325.67 120.234C325.859 120.509 326.101 120.739 326.394 120.923C326.688 121.103 326.996 121.252 327.318 121.371C327.64 121.484 327.936 121.577 328.205 121.648L329.683 122.045C330.061 122.145 330.483 122.282 330.947 122.457C331.416 122.633 331.863 122.872 332.289 123.175C332.72 123.473 333.075 123.857 333.355 124.325C333.634 124.794 333.774 125.369 333.774 126.051C333.774 126.837 333.568 127.547 333.156 128.182C332.749 128.816 332.152 129.321 331.366 129.695C330.585 130.069 329.635 130.256 328.518 130.256C327.476 130.256 326.574 130.088 325.812 129.751C325.054 129.415 324.458 128.946 324.022 128.345C323.591 127.744 323.347 127.045 323.291 126.25H325.109C325.156 126.799 325.341 127.254 325.663 127.614C325.99 127.969 326.401 128.234 326.899 128.409C327.401 128.58 327.94 128.665 328.518 128.665C329.19 128.665 329.794 128.556 330.329 128.338C330.864 128.116 331.288 127.808 331.6 127.415C331.913 127.017 332.069 126.553 332.069 126.023C332.069 125.54 331.934 125.147 331.664 124.844C331.394 124.541 331.039 124.295 330.599 124.105C330.159 123.916 329.683 123.75 329.171 123.608L327.382 123.097C326.245 122.77 325.346 122.304 324.683 121.697C324.02 121.091 323.688 120.298 323.688 119.318C323.688 118.504 323.909 117.794 324.349 117.188C324.794 116.577 325.391 116.103 326.139 115.767C326.892 115.426 327.732 115.256 328.66 115.256C329.597 115.256 330.431 115.424 331.16 115.76C331.889 116.091 332.467 116.546 332.893 117.124C333.324 117.701 333.551 118.357 333.575 119.091H331.87ZM200.57 139H199.513C199.45 138.696 199.341 138.429 199.185 138.199C199.031 137.969 198.844 137.776 198.622 137.619C198.404 137.46 198.161 137.341 197.894 137.261C197.627 137.182 197.348 137.142 197.058 137.142C196.53 137.142 196.051 137.276 195.622 137.543C195.196 137.81 194.857 138.203 194.604 138.723C194.354 139.243 194.229 139.881 194.229 140.636C194.229 141.392 194.354 142.03 194.604 142.55C194.857 143.07 195.196 143.463 195.622 143.73C196.051 143.997 196.53 144.131 197.058 144.131C197.348 144.131 197.627 144.091 197.894 144.011C198.161 143.932 198.404 143.814 198.622 143.658C198.844 143.499 199.031 143.304 199.185 143.074C199.341 142.841 199.45 142.574 199.513 142.273H200.57C200.49 142.719 200.345 143.118 200.135 143.47C199.925 143.822 199.664 144.122 199.351 144.369C199.039 144.614 198.688 144.8 198.298 144.928C197.912 145.055 197.499 145.119 197.058 145.119C196.314 145.119 195.652 144.938 195.073 144.574C194.493 144.21 194.037 143.693 193.705 143.023C193.372 142.352 193.206 141.557 193.206 140.636C193.206 139.716 193.372 138.92 193.705 138.25C194.037 137.58 194.493 137.062 195.073 136.699C195.652 136.335 196.314 136.153 197.058 136.153C197.499 136.153 197.912 136.217 198.298 136.345C198.688 136.473 199.039 136.661 199.351 136.908C199.664 137.152 199.925 137.45 200.135 137.803C200.345 138.152 200.49 138.551 200.57 139ZM209.641 140.636C209.641 141.557 209.475 142.352 209.143 143.023C208.81 143.693 208.354 144.21 207.775 144.574C207.195 144.938 206.533 145.119 205.789 145.119C205.045 145.119 204.383 144.938 203.803 144.574C203.224 144.21 202.768 143.693 202.435 143.023C202.103 142.352 201.937 141.557 201.937 140.636C201.937 139.716 202.103 138.92 202.435 138.25C202.768 137.58 203.224 137.062 203.803 136.699C204.383 136.335 205.045 136.153 205.789 136.153C206.533 136.153 207.195 136.335 207.775 136.699C208.354 137.062 208.81 137.58 209.143 138.25C209.475 138.92 209.641 139.716 209.641 140.636ZM208.618 140.636C208.618 139.881 208.492 139.243 208.239 138.723C207.989 138.203 207.65 137.81 207.221 137.543C206.795 137.276 206.317 137.142 205.789 137.142C205.26 137.142 204.782 137.276 204.353 137.543C203.927 137.81 203.587 138.203 203.334 138.723C203.084 139.243 202.959 139.881 202.959 140.636C202.959 141.392 203.084 142.03 203.334 142.55C203.587 143.07 203.927 143.463 204.353 143.73C204.782 143.997 205.26 144.131 205.789 144.131C206.317 144.131 206.795 143.997 207.221 143.73C207.65 143.463 207.989 143.07 208.239 142.55C208.492 142.03 208.618 141.392 208.618 140.636ZM211.418 136.273H212.68L215.645 143.517H215.748L218.714 136.273H219.975V145H218.986V138.369H218.901L216.174 145H215.219L212.492 138.369H212.407V145H211.418V136.273ZM223.151 136.273V145H222.094V136.273H223.151ZM232.19 136.273V145H231.167L226.412 138.148H226.327V145H225.27V136.273H226.292L231.065 143.142H231.15V136.273H232.19ZM240.271 139C240.177 138.713 240.053 138.456 239.9 138.229C239.749 137.999 239.569 137.803 239.359 137.641C239.151 137.479 238.916 137.355 238.651 137.27C238.387 137.185 238.097 137.142 237.782 137.142C237.265 137.142 236.795 137.276 236.372 137.543C235.948 137.81 235.612 138.203 235.362 138.723C235.112 139.243 234.987 139.881 234.987 140.636C234.987 141.392 235.113 142.03 235.366 142.55C235.619 143.07 235.961 143.463 236.393 143.73C236.825 143.997 237.311 144.131 237.85 144.131C238.35 144.131 238.791 144.024 239.171 143.811C239.555 143.595 239.853 143.291 240.066 142.899C240.282 142.504 240.39 142.04 240.39 141.506L240.714 141.574H238.089V140.636H241.413V141.574C241.413 142.293 241.259 142.918 240.953 143.449C240.649 143.98 240.228 144.392 239.691 144.685C239.157 144.974 238.544 145.119 237.85 145.119C237.078 145.119 236.399 144.938 235.813 144.574C235.231 144.21 234.776 143.693 234.45 143.023C234.126 142.352 233.964 141.557 233.964 140.636C233.964 139.946 234.056 139.325 234.241 138.774C234.428 138.22 234.693 137.749 235.034 137.359C235.374 136.97 235.778 136.672 236.244 136.464C236.71 136.257 237.222 136.153 237.782 136.153C238.242 136.153 238.671 136.223 239.069 136.362C239.47 136.499 239.826 136.693 240.139 136.946C240.454 137.196 240.717 137.496 240.927 137.845C241.137 138.192 241.282 138.577 241.362 139H240.271ZM251.371 138.455C251.319 138.023 251.112 137.688 250.748 137.449C250.385 137.21 249.939 137.091 249.41 137.091C249.024 137.091 248.686 137.153 248.396 137.278C248.109 137.403 247.885 137.575 247.723 137.794C247.564 138.013 247.484 138.261 247.484 138.54C247.484 138.773 247.54 138.973 247.65 139.141C247.764 139.305 247.909 139.443 248.085 139.554C248.261 139.662 248.446 139.751 248.639 139.822C248.832 139.891 249.01 139.946 249.172 139.989L250.058 140.227C250.285 140.287 250.538 140.369 250.817 140.474C251.098 140.58 251.366 140.723 251.622 140.905C251.881 141.084 252.094 141.314 252.261 141.595C252.429 141.876 252.513 142.222 252.513 142.631C252.513 143.102 252.389 143.528 252.142 143.909C251.898 144.29 251.54 144.592 251.068 144.817C250.599 145.041 250.03 145.153 249.359 145.153C248.734 145.153 248.193 145.053 247.736 144.851C247.281 144.649 246.923 144.368 246.662 144.007C246.403 143.646 246.257 143.227 246.223 142.75H247.314C247.342 143.08 247.453 143.352 247.646 143.568C247.842 143.781 248.089 143.94 248.388 144.045C248.689 144.148 249.013 144.199 249.359 144.199C249.763 144.199 250.125 144.134 250.446 144.003C250.767 143.869 251.021 143.685 251.209 143.449C251.396 143.21 251.49 142.932 251.49 142.614C251.49 142.324 251.409 142.088 251.247 141.906C251.085 141.724 250.872 141.577 250.608 141.463C250.344 141.349 250.058 141.25 249.751 141.165L248.677 140.858C247.996 140.662 247.456 140.382 247.058 140.018C246.66 139.655 246.461 139.179 246.461 138.591C246.461 138.102 246.594 137.676 246.858 137.312C247.125 136.946 247.483 136.662 247.932 136.46C248.383 136.256 248.888 136.153 249.444 136.153C250.007 136.153 250.507 136.254 250.944 136.456C251.382 136.655 251.729 136.928 251.984 137.274C252.243 137.621 252.379 138.014 252.393 138.455H251.371ZM261.614 140.636C261.614 141.557 261.448 142.352 261.115 143.023C260.783 143.693 260.327 144.21 259.747 144.574C259.168 144.938 258.506 145.119 257.762 145.119C257.017 145.119 256.355 144.938 255.776 144.574C255.196 144.21 254.74 143.693 254.408 143.023C254.075 142.352 253.909 141.557 253.909 140.636C253.909 139.716 254.075 138.92 254.408 138.25C254.74 137.58 255.196 137.062 255.776 136.699C256.355 136.335 257.017 136.153 257.762 136.153C258.506 136.153 259.168 136.335 259.747 136.699C260.327 137.062 260.783 137.58 261.115 138.25C261.448 138.92 261.614 139.716 261.614 140.636ZM260.591 140.636C260.591 139.881 260.465 139.243 260.212 138.723C259.962 138.203 259.622 137.81 259.193 137.543C258.767 137.276 258.29 137.142 257.762 137.142C257.233 137.142 256.754 137.276 256.325 137.543C255.899 137.81 255.56 138.203 255.307 138.723C255.057 139.243 254.932 139.881 254.932 140.636C254.932 141.392 255.057 142.03 255.307 142.55C255.56 143.07 255.899 143.463 256.325 143.73C256.754 143.997 257.233 144.131 257.762 144.131C258.29 144.131 258.767 143.997 259.193 143.73C259.622 143.463 259.962 143.07 260.212 142.55C260.465 142.03 260.591 141.392 260.591 140.636ZM270.754 140.636C270.754 141.557 270.588 142.352 270.256 143.023C269.923 143.693 269.468 144.21 268.888 144.574C268.308 144.938 267.646 145.119 266.902 145.119C266.158 145.119 265.496 144.938 264.916 144.574C264.337 144.21 263.881 143.693 263.548 143.023C263.216 142.352 263.05 141.557 263.05 140.636C263.05 139.716 263.216 138.92 263.548 138.25C263.881 137.58 264.337 137.062 264.916 136.699C265.496 136.335 266.158 136.153 266.902 136.153C267.646 136.153 268.308 136.335 268.888 136.699C269.468 137.062 269.923 137.58 270.256 138.25C270.588 138.92 270.754 139.716 270.754 140.636ZM269.732 140.636C269.732 139.881 269.605 139.243 269.352 138.723C269.102 138.203 268.763 137.81 268.334 137.543C267.908 137.276 267.431 137.142 266.902 137.142C266.374 137.142 265.895 137.276 265.466 137.543C265.04 137.81 264.7 138.203 264.448 138.723C264.198 139.243 264.073 139.881 264.073 140.636C264.073 141.392 264.198 142.03 264.448 142.55C264.7 143.07 265.04 143.463 265.466 143.73C265.895 143.997 266.374 144.131 266.902 144.131C267.431 144.131 267.908 143.997 268.334 143.73C268.763 143.463 269.102 143.07 269.352 142.55C269.605 142.03 269.732 141.392 269.732 140.636ZM279.452 136.273V145H278.429L273.673 138.148H273.588V145H272.531V136.273H273.554L278.327 143.142H278.412V136.273H279.452Z" fill="white"/>
<path fill-rule="evenodd" clip-rule="evenodd" d="M478.074 294.79C478.074 300.77 473.207 305.616 467.204 305.616H400.972C394.969 305.616 390.103 300.77 390.103 294.79V131.032C390.103 125.052 394.969 120.205 400.972 120.205H467.204C473.207 120.205 478.074 125.052 478.074 131.032V294.79Z" fill="#FDFDFD" stroke="#7E89A3" stroke-width="2"/>
<path d="M471.936 144.522H396.193V279.3H471.936V144.522Z" fill="white" stroke="#7E89A3"/>
<path fill-rule="evenodd" clip-rule="evenodd" d="M442.208 137.58C442.208 138.01 441.911 138.357 441.545 138.357H427.942C427.576 138.357 427.279 138.009 427.279 137.58V135.834C427.279 135.404 427.576 135.057 427.942 135.057H441.545C441.911 135.057 442.208 135.404 442.208 135.834V137.58Z" stroke="#7E89A3"/>
<path d="M434.765 130.305C435.886 130.305 436.795 129.396 436.795 128.274C436.795 127.153 435.886 126.243 434.765 126.243C433.644 126.243 432.735 127.153 432.735 128.274C432.735 129.396 433.644 130.305 434.765 130.305Z" stroke="#7E89A3"/>
<path d="M434.115 298.878C437.867 298.878 440.909 295.846 440.909 292.107C440.909 288.368 437.867 285.336 434.115 285.336C430.363 285.336 427.321 288.368 427.321 292.107C427.321 295.846 430.363 298.878 434.115 298.878Z" stroke="#7E89A3"/>
<path d="M472 145H396V279H472V145Z" fill="#555555"/>
<path d="M403.233 217V206.818H404.466V215.906H409.199V217H403.233ZM414.051 217.159C413.362 217.159 412.757 216.995 412.237 216.667C411.719 216.339 411.315 215.88 411.023 215.29C410.735 214.7 410.591 214.01 410.591 213.222C410.591 212.426 410.735 211.732 411.023 211.138C411.315 210.545 411.719 210.085 412.237 209.756C412.757 209.428 413.362 209.264 414.051 209.264C414.741 209.264 415.344 209.428 415.861 209.756C416.381 210.085 416.786 210.545 417.074 211.138C417.366 211.732 417.511 212.426 417.511 213.222C417.511 214.01 417.366 214.7 417.074 215.29C416.786 215.88 416.381 216.339 415.861 216.667C415.344 216.995 414.741 217.159 414.051 217.159ZM414.051 216.105C414.575 216.105 415.006 215.971 415.344 215.702C415.682 215.434 415.932 215.081 416.094 214.643C416.257 214.206 416.338 213.732 416.338 213.222C416.338 212.711 416.257 212.236 416.094 211.795C415.932 211.354 415.682 210.998 415.344 210.726C415.006 210.454 414.575 210.318 414.051 210.318C413.527 210.318 413.097 210.454 412.759 210.726C412.42 210.998 412.17 211.354 412.008 211.795C411.845 212.236 411.764 212.711 411.764 213.222C411.764 213.732 411.845 214.206 412.008 214.643C412.17 215.081 412.42 215.434 412.759 215.702C413.097 215.971 413.527 216.105 414.051 216.105ZM421.55 217.179C421.066 217.179 420.626 217.088 420.232 216.906C419.838 216.72 419.524 216.453 419.292 216.105C419.06 215.754 418.944 215.33 418.944 214.832C418.944 214.395 419.031 214.04 419.203 213.768C419.375 213.493 419.606 213.278 419.894 213.122C420.182 212.966 420.501 212.85 420.849 212.774C421.2 212.695 421.553 212.632 421.907 212.585C422.372 212.526 422.748 212.481 423.036 212.451C423.328 212.418 423.54 212.363 423.672 212.287C423.808 212.211 423.876 212.078 423.876 211.889V211.849C423.876 211.359 423.742 210.978 423.474 210.706C423.208 210.434 422.806 210.298 422.265 210.298C421.705 210.298 421.266 210.421 420.948 210.666C420.63 210.911 420.406 211.173 420.277 211.452L419.163 211.054C419.362 210.59 419.627 210.229 419.959 209.97C420.293 209.708 420.658 209.526 421.052 209.423C421.45 209.317 421.841 209.264 422.226 209.264C422.471 209.264 422.753 209.294 423.071 209.354C423.392 209.41 423.702 209.528 424.001 209.707C424.302 209.886 424.552 210.156 424.751 210.517C424.95 210.878 425.05 211.362 425.05 211.969V217H423.876V215.966H423.817C423.737 216.132 423.604 216.309 423.419 216.498C423.233 216.687 422.986 216.848 422.678 216.98C422.37 217.113 421.994 217.179 421.55 217.179ZM421.729 216.125C422.193 216.125 422.584 216.034 422.902 215.852C423.223 215.669 423.465 215.434 423.628 215.146C423.793 214.857 423.876 214.554 423.876 214.236V213.162C423.827 213.222 423.717 213.276 423.548 213.326C423.382 213.372 423.19 213.414 422.971 213.45C422.756 213.483 422.546 213.513 422.34 213.54C422.138 213.563 421.974 213.583 421.848 213.599C421.543 213.639 421.258 213.704 420.993 213.793C420.731 213.879 420.519 214.01 420.356 214.186C420.197 214.358 420.118 214.594 420.118 214.892C420.118 215.3 420.269 215.608 420.57 215.817C420.875 216.022 421.261 216.125 421.729 216.125ZM430.075 217.159C429.438 217.159 428.876 216.998 428.389 216.677C427.902 216.352 427.521 215.895 427.246 215.305C426.971 214.711 426.833 214.01 426.833 213.202C426.833 212.4 426.971 211.704 427.246 211.114C427.521 210.524 427.904 210.068 428.394 209.746C428.885 209.425 429.451 209.264 430.094 209.264C430.592 209.264 430.984 209.347 431.273 209.513C431.564 209.675 431.786 209.861 431.939 210.07C432.095 210.275 432.216 210.444 432.302 210.577H432.401V206.818H433.575V217H432.441V215.827H432.302C432.216 215.966 432.093 216.142 431.934 216.354C431.775 216.562 431.548 216.75 431.253 216.915C430.958 217.078 430.565 217.159 430.075 217.159ZM430.234 216.105C430.704 216.105 431.102 215.982 431.427 215.737C431.752 215.489 431.999 215.146 432.168 214.708C432.337 214.267 432.421 213.759 432.421 213.182C432.421 212.612 432.338 212.113 432.173 211.685C432.007 211.254 431.762 210.92 431.437 210.681C431.112 210.439 430.711 210.318 430.234 210.318C429.737 210.318 429.322 210.446 428.991 210.701C428.663 210.953 428.416 211.296 428.25 211.73C428.088 212.161 428.006 212.645 428.006 213.182C428.006 213.725 428.089 214.219 428.255 214.663C428.424 215.104 428.673 215.455 429.001 215.717C429.332 215.976 429.743 216.105 430.234 216.105ZM435.886 217V209.364H437.06V217H435.886ZM436.483 208.091C436.254 208.091 436.057 208.013 435.891 207.857C435.729 207.701 435.648 207.514 435.648 207.295C435.648 207.077 435.729 206.889 435.891 206.734C436.057 206.578 436.254 206.5 436.483 206.5C436.712 206.5 436.907 206.578 437.07 206.734C437.235 206.889 437.318 207.077 437.318 207.295C437.318 207.514 437.235 207.701 437.07 207.857C436.907 208.013 436.712 208.091 436.483 208.091ZM440.382 212.406V217H439.209V209.364H440.342V210.557H440.442C440.621 210.169 440.892 209.857 441.257 209.622C441.622 209.384 442.092 209.264 442.669 209.264C443.186 209.264 443.638 209.37 444.026 209.582C444.414 209.791 444.715 210.109 444.931 210.537C445.146 210.961 445.254 211.498 445.254 212.148V217H444.081V212.227C444.081 211.627 443.925 211.16 443.613 210.825C443.302 210.487 442.874 210.318 442.331 210.318C441.956 210.318 441.622 210.399 441.327 210.562C441.035 210.724 440.805 210.961 440.635 211.273C440.466 211.584 440.382 211.962 440.382 212.406ZM450.48 220.023C449.914 220.023 449.426 219.95 449.019 219.804C448.611 219.661 448.271 219.473 448 219.237C447.731 219.005 447.517 218.757 447.358 218.491L448.293 217.835C448.399 217.974 448.533 218.134 448.696 218.312C448.858 218.495 449.08 218.652 449.362 218.785C449.647 218.921 450.02 218.989 450.48 218.989C451.097 218.989 451.606 218.839 452.007 218.541C452.408 218.243 452.608 217.776 452.608 217.139V215.588H452.509C452.423 215.727 452.3 215.9 452.141 216.105C451.985 216.307 451.76 216.488 451.465 216.647C451.173 216.803 450.779 216.881 450.282 216.881C449.665 216.881 449.112 216.735 448.621 216.443C448.134 216.152 447.748 215.727 447.463 215.17C447.181 214.614 447.04 213.937 447.04 213.142C447.04 212.36 447.178 211.679 447.453 211.099C447.728 210.515 448.111 210.065 448.601 209.746C449.092 209.425 449.658 209.264 450.301 209.264C450.799 209.264 451.193 209.347 451.485 209.513C451.78 209.675 452.005 209.861 452.161 210.07C452.32 210.275 452.443 210.444 452.529 210.577H452.648V209.364H453.782V217.219C453.782 217.875 453.632 218.409 453.334 218.82C453.039 219.234 452.641 219.537 452.141 219.729C451.644 219.925 451.09 220.023 450.48 220.023ZM450.441 215.827C450.911 215.827 451.309 215.719 451.634 215.504C451.959 215.288 452.206 214.978 452.375 214.574C452.544 214.17 452.628 213.686 452.628 213.122C452.628 212.572 452.545 212.086 452.38 211.665C452.214 211.245 451.969 210.915 451.644 210.676C451.319 210.437 450.918 210.318 450.441 210.318C449.944 210.318 449.529 210.444 449.198 210.696C448.87 210.948 448.623 211.286 448.457 211.71C448.295 212.134 448.213 212.605 448.213 213.122C448.213 213.652 448.296 214.121 448.462 214.529C448.631 214.933 448.88 215.252 449.208 215.484C449.539 215.712 449.95 215.827 450.441 215.827ZM456.784 217.08C456.539 217.08 456.329 216.992 456.153 216.816C455.977 216.64 455.89 216.43 455.89 216.185C455.89 215.939 455.977 215.729 456.153 215.553C456.329 215.378 456.539 215.29 456.784 215.29C457.03 215.29 457.24 215.378 457.416 215.553C457.592 215.729 457.679 215.939 457.679 216.185C457.679 216.347 457.638 216.496 457.555 216.632C457.475 216.768 457.368 216.877 457.232 216.96C457.099 217.04 456.95 217.08 456.784 217.08ZM460.64 217.08C460.395 217.08 460.184 216.992 460.009 216.816C459.833 216.64 459.745 216.43 459.745 216.185C459.745 215.939 459.833 215.729 460.009 215.553C460.184 215.378 460.395 215.29 460.64 215.29C460.885 215.29 461.096 215.378 461.271 215.553C461.447 215.729 461.535 215.939 461.535 216.185C461.535 216.347 461.493 216.496 461.411 216.632C461.331 216.768 461.223 216.877 461.087 216.96C460.955 217.04 460.806 217.08 460.64 217.08ZM464.495 217.08C464.25 217.08 464.04 216.992 463.864 216.816C463.688 216.64 463.6 216.43 463.6 216.185C463.6 215.939 463.688 215.729 463.864 215.553C464.04 215.378 464.25 215.29 464.495 215.29C464.741 215.29 464.951 215.378 465.127 215.553C465.302 215.729 465.39 215.939 465.39 216.185C465.39 216.347 465.349 216.496 465.266 216.632C465.186 216.768 465.079 216.877 464.943 216.96C464.81 217.04 464.661 217.08 464.495 217.08Z" fill="white"/>
<defs>
<filter id="filter0_d_102_6" x="502.989" y="147.021" width="76.2581" height="18.8983" filterUnits="userSpaceOnUse" color-interpolation-filters="sRGB">
<feFlood flood-opacity="0" result="BackgroundImageFix"/>
<feColorMatrix in="SourceAlpha" type="matrix" values="0 0 0 0 0 0 0 0 0 0 0 0 0 0 0 0 0 0 127 0" result="hardAlpha"/>
<feOffset dy="4"/>
<feGaussianBlur stdDeviation="2"/>
<feComposite in2="hardAlpha" operator="out"/>
<feColorMatrix type="matrix" values="0 0 0 0 0 0 0 0 0 0 0 0 0 0 0 0 0 0 0.25 0"/>
<feBlend mode="normal" in2="BackgroundImageFix" result="effect1_dropShadow_102_6"/>
<feBlend mode="normal" in="SourceGraphic" in2="effect1_dropShadow_102_6" result="shape"/>
</filter>
<filter id="filter1_d_102_6" x="502.903" y="141.479" width="82.4346" height="16.0522" filterUnits="userSpaceOnUse" color-interpolation-filters="sRGB">
<feFlood flood-opacity="0" result="BackgroundImageFix"/>
<feColorMatrix in="SourceAlpha" type="matrix" values="0 0 0 0 0 0 0 0 0 0 0 0 0 0 0 0 0 0 127 0" result="hardAlpha"/>
<feOffset dy="4"/>
<feGaussianBlur stdDeviation="2"/>
<feComposite in2="hardAlpha" operator="out"/>
<feColorMatrix type="matrix" values="0 0 0 0 0 0 0 0 0 0 0 0 0 0 0 0 0 0 0.25 0"/>
<feBlend mode="normal" in2="BackgroundImageFix" result="effect1_dropShadow_102_6"/>
<feBlend mode="normal" in="SourceGraphic" in2="effect1_dropShadow_102_6" result="shape"/>
</filter>
<filter id="filter2_d_102_6" x="482.099" y="132.485" width="27.3622" height="35.3364" filterUnits="userSpaceOnUse" color-interpolation-filters="sRGB">
<feFlood flood-opacity="0" result="BackgroundImageFix"/>
<feColorMatrix in="SourceAlpha" type="matrix" values="0 0 0 0 0 0 0 0 0 0 0 0 0 0 0 0 0 0 127 0" result="hardAlpha"/>
<feOffset dy="4"/>
<feGaussianBlur stdDeviation="2"/>
<feComposite in2="hardAlpha" operator="out"/>
<feColorMatrix type="matrix" values="0 0 0 0 0 0 0 0 0 0 0 0 0 0 0 0 0 0 0.25 0"/>
<feBlend mode="normal" in2="BackgroundImageFix" result="effect1_dropShadow_102_6"/>
<feBlend mode="normal" in="SourceGraphic" in2="effect1_dropShadow_102_6" result="shape"/>
</filter>
<filter id="filter3_d_102_6" x="514.565" y="138.338" width="52.8695" height="13.4466" filterUnits="userSpaceOnUse" color-interpolation-filters="sRGB">
<feFlood flood-opacity="0" result="BackgroundImageFix"/>
<feColorMatrix in="SourceAlpha" type="matrix" values="0 0 0 0 0 0 0 0 0 0 0 0 0 0 0 0 0 0 127 0" result="hardAlpha"/>
<feOffset dy="4"/>
<feGaussianBlur stdDeviation="2"/>
<feComposite in2="hardAlpha" operator="out"/>
<feColorMatrix type="matrix" values="0 0 0 0 0 0 0 0 0 0 0 0 0 0 0 0 0 0 0.25 0"/>
<feBlend mode="normal" in2="BackgroundImageFix" result="effect1_dropShadow_102_6"/>
<feBlend mode="normal" in="SourceGraphic" in2="effect1_dropShadow_102_6" result="shape"/>
</filter>
<clipPath id="clip0_102_6">
<rect width="99" height="39" fill="white" transform="translate(484 124)"/>
</clipPath>
</defs>
</svg>
