<svg width="607" height="306" viewBox="0 0 607 306" fill="none" xmlns="http://www.w3.org/2000/svg">
<g clip-path="url(#clip0_0_1)">
<path fill-rule="evenodd" clip-rule="evenodd" d="M598.193 251.841H469.019C464.529 251.841 460.889 248.201 460.889 243.71V45.4214C460.889 40.9309 464.528 37.2907 469.019 37.2907H598.193C602.684 37.2907 606.323 40.9309 606.323 45.4214V243.71C606.323 248.201 602.684 251.841 598.193 251.841Z" fill="#FDFDFD" stroke="#7E89A3" stroke-width="2"/>
<path fill-rule="evenodd" clip-rule="evenodd" d="M598.193 251.841H469.019C464.529 251.841 460.889 248.201 460.889 243.71V45.4214C460.889 40.9309 464.528 37.2907 469.019 37.2907H598.193C602.684 37.2907 606.323 40.9309 606.323 45.4214V243.71C606.323 248.201 602.684 251.841 598.193 251.841Z" fill="#FDFDFD" stroke="#7E89A3" stroke-width="2"/>
<path d="M595.495 58.8982H472.337V230.121H595.495V58.8982Z" fill="white" stroke="#7E89A3"/>
<path d="M533.931 245.776C536.928 245.776 539.358 243.345 539.358 240.346C539.358 237.347 536.928 234.916 533.931 234.916C530.933 234.916 528.503 237.347 528.503 240.346C528.503 243.345 530.933 245.776 533.931 245.776Z" stroke="#7E89A3"/>
<path d="M533.233 50.7608C534.35 50.7608 535.256 49.8545 535.256 48.7366C535.256 47.6187 534.35 46.7124 533.233 46.7124C532.115 46.7124 531.21 47.6187 531.21 48.7366C531.21 49.8545 532.115 50.7608 533.233 50.7608Z" stroke="#7E89A3"/>
<path fill-rule="evenodd" clip-rule="evenodd" d="M402.637 0.677002H66.9933C57.8607 0.677002 50.0758 8.17388 50.0758 17.4597V238.32H419.554V17.4597C419.554 8.1732 411.797 0.677002 402.637 0.677002Z" fill="#FEFEFE" stroke="#8492A5" stroke-width="2"/>
<path d="M235.492 16.2478C236.987 16.2478 238.198 15.0354 238.198 13.5398C238.198 12.0443 236.987 10.8319 235.492 10.8319C233.997 10.8319 232.785 12.0443 232.785 13.5398C232.785 15.0354 233.997 16.2478 235.492 16.2478Z" stroke="#8492A5" stroke-width="2"/>
<path fill-rule="evenodd" clip-rule="evenodd" d="M434.314 259.294H35.3833C14.6445 259.294 0.676697 252.175 0.676697 249.148V239.945C0.676697 239.035 1.58009 238.301 2.70341 238.301H466.993C468.118 238.301 469.023 239.035 469.023 239.945V249.51C469.018 251.903 458.202 259.294 434.314 259.294Z" fill="#FDFDFD" stroke="#8492A5" stroke-width="2"/>
<path d="M1.01505 248.117H467.764" stroke="#8492A5" stroke-linecap="square"/>
<path d="M404.04 27.0797H64.9632V224.767H404.04V27.0797Z" fill="white" stroke="#8492A5"/>
<path fill-rule="evenodd" clip-rule="evenodd" d="M285.567 238.978V241.068C285.567 242.558 282.635 243.008 280.416 243.008H189.351C187.016 243.008 184.062 242.558 184.062 241.068V238.978" fill="white"/>
<path d="M285.567 238.978V241.068C285.567 242.558 282.635 243.008 280.416 243.008H189.351C187.016 243.008 184.062 242.558 184.062 241.068V238.978" stroke="#8492A5"/>
<path fill-rule="evenodd" clip-rule="evenodd" d="M477.75 294.467C477.75 300.447 472.884 305.293 466.881 305.293H400.649C394.646 305.293 389.78 300.447 389.78 294.467V130.709C389.78 124.729 394.646 119.882 400.649 119.882H466.881C472.884 119.882 477.75 124.729 477.75 130.709V294.467Z" fill="#FDFDFD" stroke="#7E89A3" stroke-width="2"/>
<path d="M471.613 144.199H395.87V278.977H471.613V144.199Z" fill="white" stroke="#7E89A3"/>
<path fill-rule="evenodd" clip-rule="evenodd" d="M441.885 137.257C441.885 137.687 441.588 138.034 441.222 138.034H427.619C427.252 138.034 426.956 137.686 426.956 137.257V135.511C426.956 135.081 427.253 134.734 427.619 134.734H441.222C441.588 134.734 441.885 135.081 441.885 135.511V137.257Z" stroke="#7E89A3"/>
<path d="M434.441 129.982C435.563 129.982 436.472 129.073 436.472 127.951C436.472 126.83 435.563 125.92 434.441 125.92C433.32 125.92 432.411 126.83 432.411 127.951C432.411 129.073 433.32 129.982 434.441 129.982Z" stroke="#7E89A3"/>
<path d="M433.792 298.554C437.544 298.554 440.586 295.523 440.586 291.784C440.586 288.045 437.544 285.013 433.792 285.013C430.04 285.013 426.998 288.045 426.998 291.784C426.998 295.523 430.04 298.554 433.792 298.554Z" stroke="#7E89A3"/>
</g>
<defs>
<clipPath id="clip0_0_1">
<rect width="607" height="306" fill="white"/>
</clipPath>
</defs>
</svg>
